<?xml version="1.0" encoding="UTF-8" standalone="no"?>
<svg
   version="1.1"
   viewBox="0.00 0.00 446.00 446.00"
   id="svg70"
   sodipodi:docname="Digicel.svg"
   inkscape:version="1.1.2 (b8e25be833, 2022-02-05)"
   xmlns:inkscape="http://www.inkscape.org/namespaces/inkscape"
   xmlns:sodipodi="http://sodipodi.sourceforge.net/DTD/sodipodi-0.dtd"
   xmlns="http://www.w3.org/2000/svg"
   xmlns:svg="http://www.w3.org/2000/svg">
  <defs
     id="defs74" />
  <sodipodi:namedview
     id="namedview72"
     pagecolor="#ffffff"
     bordercolor="#666666"
     borderopacity="1.0"
     inkscape:pageshadow="2"
     inkscape:pageopacity="0.0"
     inkscape:pagecheckerboard="0"
     showgrid="false"
     inkscape:zoom="1.7892377"
     inkscape:cx="223"
     inkscape:cy="223.27945"
     inkscape:window-width="1920"
     inkscape:window-height="991"
     inkscape:window-x="-9"
     inkscape:window-y="-9"
     inkscape:window-maximized="1"
     inkscape:current-layer="svg70" />
  <g
     stroke-width="2.00"
     fill="none"
     stroke-linecap="butt"
     id="g34"
     inkscape:export-filename="C:\Users\Didier\Downloads\logos opérateurs\ellipse68.png"
     inkscape:export-xdpi="11.183699"
     inkscape:export-ydpi="11.183699">
    <path
       stroke="#f18290"
       vector-effect="non-scaling-stroke"
       d="   M 183.29 25.60   A 16.56 16.56 0.0 0 0 166.73 9.04   A 16.56 16.56 0.0 0 0 150.17 25.60   A 16.56 16.56 0.0 0 0 166.73 42.16   A 16.56 16.56 0.0 0 0 183.29 25.60"
       id="path2" />
    <path
       stroke="#f18290"
       vector-effect="non-scaling-stroke"
       d="   M 294.16 25.60   A 16.57 16.57 0.0 0 0 277.59 9.03   A 16.57 16.57 0.0 0 0 261.02 25.60   A 16.57 16.57 0.0 0 0 277.59 42.17   A 16.57 16.57 0.0 0 0 294.16 25.60"
       id="path4" />
    <path
       stroke="#f18290"
       vector-effect="non-scaling-stroke"
       d="   M 322.25 69.70   L 122.21 69.36   A 0.65 0.65 0.0 0 0 121.56 70.00   L 121.41 152.27   A 97.98 95.24 -89.9 0 0 216.48 250.42   L 227.34 250.44   A 97.98 95.24 -89.9 0 0 322.75 152.63   L 322.90 70.36   A 0.65 0.65 0.0 0 0 322.25 69.70"
       id="path6" />
    <path
       stroke="#f18290"
       vector-effect="non-scaling-stroke"
       d="   M 126.12 320.91   A 11.75 11.75 0.0 0 0 114.37 309.16   A 11.75 11.75 0.0 0 0 102.62 320.91   A 11.75 11.75 0.0 0 0 114.37 332.66   A 11.75 11.75 0.0 0 0 126.12 320.91"
       id="path8" />
    <path
       stroke="#f18290"
       vector-effect="non-scaling-stroke"
       d="   M 243.29 320.91   A 11.75 11.75 0.0 0 0 231.54 309.16   A 11.75 11.75 0.0 0 0 219.79 320.91   A 11.75 11.75 0.0 0 0 231.54 332.66   A 11.75 11.75 0.0 0 0 243.29 320.91"
       id="path10" />
    <path
       stroke="#f18290"
       vector-effect="non-scaling-stroke"
       d="   M 4.52 312.39   L 4.52 407.85   A 0.53 0.53 0.0 0 0 5.05 408.38   L 46.02 408.38   A 46.28 45.08 -0.0 0 0 92.30 363.30   L 92.30 356.94   A 46.28 45.08 0.0 0 0 46.02 311.86   L 5.05 311.86   A 0.53 0.53 0.0 0 0 4.52 312.39"
       id="path12" />
    <path
       stroke="#f18290"
       vector-effect="non-scaling-stroke"
       d="   M 440.30 391.40   A 0.37 0.37 0.0 0 0 439.89 391.03   C 436.83 391.39 432.01 391.81 429.65 389.71   Q 427.33 387.62 427.32 383.99   Q 427.21 348.10 427.26 312.33   A 0.56 0.55 0.0 0 0 426.70 311.78   L 407.22 311.77   A 0.73 0.73 0.0 0 0 406.49 312.50   Q 406.54 346.79 406.47 385.11   Q 406.47 390.78 407.63 395.29   C 411.45 410.04 426.94 411.60 439.45 409.43   A 0.93 0.93 0.0 0 0 440.23 408.51   L 440.30 391.40"
       id="path14" />
    <path
       stroke="#f18290"
       vector-effect="non-scaling-stroke"
       d="   M 279.00 358.56   C 287.00 352.78 298.26 354.27 305.13 361.67   A 0.92 0.92 0.0 0 0 306.45 361.69   L 318.56 349.60   A 0.54 0.54 0.0 0 0 318.57 348.83   Q 302.55 332.25 279.44 337.49   Q 269.95 339.65 262.52 346.71   Q 248.72 359.83 251.78 379.88   Q 253.34 390.10 260.53 397.76   C 275.99 414.24 302.83 414.58 318.56 397.32   Q 318.87 396.99 318.54 396.67   L 306.20 384.56   Q 305.74 384.11 305.29 384.57   C 294.43 395.86 274.63 392.82 272.15 375.90   C 271.20 369.43 273.74 362.36 279.00 358.56"
       id="path16" />
    <path
       stroke="#f18290"
       vector-effect="non-scaling-stroke"
       d="   M 344.48 378.79   L 395.75 378.77   Q 396.43 378.77 396.49 378.10   C 398.09 361.73 392.25 347.50 377.26 340.11   C 367.91 335.50 353.79 335.61 344.38 339.77   Q 327.27 347.34 323.72 365.38   C 322.60 371.09 322.72 379.40 324.28 384.54   Q 330.37 404.57 351.01 408.91   Q 373.95 413.73 390.72 398.05   A 1.02 1.01 45.6 0 0 390.73 396.57   L 379.88 386.16   A 0.83 0.83 0.0 0 0 378.75 386.13   C 370.78 393.17 358.60 394.69 349.80 389.19   Q 344.89 386.12 343.78 379.62   Q 343.64 378.79 344.48 378.79"
       id="path18" />
    <path
       stroke="#f18290"
       vector-effect="non-scaling-stroke"
       d="   M 189.41 346.04   Q 189.41 346.97 188.92 346.18   Q 185.34 340.49 178.55 338.69   C 150.00 331.10 128.85 355.77 135.26 383.09   C 138.29 395.99 149.25 406.37 162.85 408.29   Q 169.05 409.16 175.13 408.23   C 179.84 407.51 186.65 405.22 189.20 401.48   Q 189.86 400.52 189.88 401.69   C 189.98 408.99 188.03 415.85 180.54 418.66   C 170.38 422.48 158.15 420.17 148.87 414.26   A 0.81 0.81 0.0 0 0 147.76 414.49   L 138.60 428.40   A 0.64 0.63 33.6 0 0 138.78 429.27   C 150.70 437.28 165.77 439.98 179.74 438.26   Q 188.82 437.15 196.54 431.78   C 209.90 422.48 210.23 407.40 210.16 392.30   Q 210.04 364.04 210.19 338.96   A 0.47 0.46 -90.0 0 0 209.73 338.49   L 189.71 338.48   A 0.32 0.31 -0.0 0 0 189.39 338.79   L 189.41 346.04"
       id="path20" />
    <path
       stroke="#f18290"
       vector-effect="non-scaling-stroke"
       d="   M 124.86 338.82   A 0.30 0.30 0.0 0 0 124.56 338.52   L 104.46 338.52   A 0.30 0.30 0.0 0 0 104.16 338.82   L 104.16 407.96   A 0.30 0.30 0.0 0 0 104.46 408.26   L 124.56 408.26   A 0.30 0.30 0.0 0 0 124.86 407.96   L 124.86 338.82"
       id="path22" />
    <path
       stroke="#f18290"
       vector-effect="non-scaling-stroke"
       d="   M 242.07 339.05   A 0.52 0.52 0.0 0 0 241.55 338.53   L 221.81 338.53   A 0.52 0.52 0.0 0 0 221.29 339.05   L 221.29 407.75   A 0.52 0.52 0.0 0 0 221.81 408.27   L 241.55 408.27   A 0.52 0.52 0.0 0 0 242.07 407.75   L 242.07 339.05"
       id="path24" />
    <path
       stroke="#f18290"
       vector-effect="non-scaling-stroke"
       d="   M 281.97 112.52   L 162.65 112.52   A 0.71 0.71 0.0 0 0 161.94 113.23   L 161.94 150.13   A 55.57 55.55 -90.0 0 0 217.49 205.70   L 227.13 205.70   A 55.57 55.55 90.0 0 0 282.68 150.13   L 282.68 113.23   A 0.71 0.71 0.0 0 0 281.97 112.52"
       id="path26" />
    <path
       stroke="#f18290"
       vector-effect="non-scaling-stroke"
       d="   M 26.01 331.58   L 25.91 388.48   A 0.29 0.29 0.0 0 0 26.20 388.77   L 44.79 388.80   A 25.88 25.05 0.1 0 0 70.71 363.80   L 70.73 356.42   A 25.88 25.05 0.1 0 0 44.89 331.32   L 26.30 331.29   A 0.29 0.29 0.0 0 0 26.01 331.58"
       id="path28" />
    <path
       stroke="#f18290"
       vector-effect="non-scaling-stroke"
       d="   M 344.52 365.39   L 375.78 365.23   A 0.12 0.12 0.0 0 0 375.90 365.11   L 375.90 365.02   A 15.58 11.23 -0.3 0 0 360.26 353.87   L 359.92 353.87   A 15.58 11.23 -0.3 0 0 344.40 365.18   L 344.40 365.27   A 0.12 0.12 0.0 0 0 344.52 365.39"
       id="path30" />
    <path
       stroke="#f18290"
       vector-effect="non-scaling-stroke"
       d="   M 190.5893 373.4668   A 17.97 17.28 0.5 0 0 172.7708 356.0307   A 17.97 17.28 0.5 0 0 154.6507 373.1532   A 17.97 17.28 0.5 0 0 172.4692 390.5893   A 17.97 17.28 0.5 0 0 190.5893 373.4668"
       id="path32" />
  </g>
  <circle
     fill="#e30520"
     cx="166.73"
     cy="25.60"
     r="16.56"
     id="circle38"
     inkscape:export-filename="C:\Users\Didier\Downloads\logos opérateurs\ellipse68.png"
     inkscape:export-xdpi="11.183699"
     inkscape:export-ydpi="11.183699" />
  <circle
     fill="#e30520"
     cx="277.59"
     cy="25.60"
     r="16.57"
     id="circle40"
     inkscape:export-filename="C:\Users\Didier\Downloads\logos opérateurs\ellipse68.png"
     inkscape:export-xdpi="11.183699"
     inkscape:export-ydpi="11.183699" />
  <path
     fill="#e30520"
     d="   M 322.25 69.70   A 0.65 0.65 0.0 0 1 322.90 70.36   L 322.75 152.63   A 97.98 95.24 -89.9 0 1 227.34 250.44   L 216.48 250.42   A 97.98 95.24 -89.9 0 1 121.41 152.27   L 121.56 70.00   A 0.65 0.65 0.0 0 1 122.21 69.36   L 322.25 69.70   Z   M 281.97 112.52   L 162.65 112.52   A 0.71 0.71 0.0 0 0 161.94 113.23   L 161.94 150.13   A 55.57 55.55 -90.0 0 0 217.49 205.70   L 227.13 205.70   A 55.57 55.55 90.0 0 0 282.68 150.13   L 282.68 113.23   A 0.71 0.71 0.0 0 0 281.97 112.52   Z"
     id="path42"
     inkscape:export-filename="C:\Users\Didier\Downloads\logos opérateurs\ellipse68.png"
     inkscape:export-xdpi="11.183699"
     inkscape:export-ydpi="11.183699" />
  <circle
     fill="#e30520"
     cx="114.37"
     cy="320.91"
     r="11.75"
     id="circle46"
     inkscape:export-filename="C:\Users\Didier\Downloads\logos opérateurs\ellipse68.png"
     inkscape:export-xdpi="11.183699"
     inkscape:export-ydpi="11.183699" />
  <circle
     fill="#e30520"
     cx="231.54"
     cy="320.91"
     r="11.75"
     id="circle48"
     inkscape:export-filename="C:\Users\Didier\Downloads\logos opérateurs\ellipse68.png"
     inkscape:export-xdpi="11.183699"
     inkscape:export-ydpi="11.183699" />
  <path
     fill="#e30520"
     d="   M 4.52 312.39   A 0.53 0.53 0.0 0 1 5.05 311.86   L 46.02 311.86   A 46.28 45.08 0.0 0 1 92.30 356.94   L 92.30 363.30   A 46.28 45.08 0.0 0 1 46.02 408.38   L 5.05 408.38   A 0.53 0.53 0.0 0 1 4.52 407.85   L 4.52 312.39   Z   M 26.01 331.58   L 25.91 388.48   A 0.29 0.29 0.0 0 0 26.20 388.77   L 44.79 388.80   A 25.88 25.05 0.1 0 0 70.71 363.80   L 70.73 356.42   A 25.88 25.05 0.1 0 0 44.89 331.32   L 26.30 331.29   A 0.29 0.29 0.0 0 0 26.01 331.58   Z"
     id="path50"
     inkscape:export-filename="C:\Users\Didier\Downloads\logos opérateurs\ellipse68.png"
     inkscape:export-xdpi="11.183699"
     inkscape:export-ydpi="11.183699" />
  <path
     fill="#e30520"
     d="   M 440.30 391.40   L 440.23 408.51   A 0.93 0.93 0.0 0 1 439.45 409.43   C 426.94 411.60 411.45 410.04 407.63 395.29   Q 406.47 390.78 406.47 385.11   Q 406.54 346.79 406.49 312.50   A 0.73 0.73 0.0 0 1 407.22 311.77   L 426.70 311.78   A 0.56 0.55 0.0 0 1 427.26 312.33   Q 427.21 348.10 427.32 383.99   Q 427.33 387.62 429.65 389.71   C 432.01 391.81 436.83 391.39 439.89 391.03   A 0.37 0.37 0.0 0 1 440.30 391.40   Z"
     id="path52"
     inkscape:export-filename="C:\Users\Didier\Downloads\logos opérateurs\ellipse68.png"
     inkscape:export-xdpi="11.183699"
     inkscape:export-ydpi="11.183699" />
  <path
     fill="#e30520"
     d="   M 305.13 361.67   C 298.26 354.27 287.00 352.78 279.00 358.56   C 273.74 362.36 271.20 369.43 272.15 375.90   C 274.63 392.82 294.43 395.86 305.29 384.57   Q 305.74 384.11 306.20 384.56   L 318.54 396.67   Q 318.87 396.99 318.56 397.32   C 302.83 414.58 275.99 414.24 260.53 397.76   Q 253.34 390.10 251.78 379.88   Q 248.72 359.83 262.52 346.71   Q 269.95 339.65 279.44 337.49   Q 302.55 332.25 318.57 348.83   A 0.54 0.54 0.0 0 1 318.56 349.60   L 306.45 361.69   A 0.92 0.92 0.0 0 1 305.13 361.67   Z"
     id="path56"
     inkscape:export-filename="C:\Users\Didier\Downloads\logos opérateurs\ellipse68.png"
     inkscape:export-xdpi="11.183699"
     inkscape:export-ydpi="11.183699" />
  <path
     fill="#e30520"
     d="   M 343.78 379.62   Q 344.89 386.12 349.80 389.19   C 358.60 394.69 370.78 393.17 378.75 386.13   A 0.83 0.83 0.0 0 1 379.88 386.16   L 390.73 396.57   A 1.02 1.01 45.6 0 1 390.72 398.05   Q 373.95 413.73 351.01 408.91   Q 330.37 404.57 324.28 384.54   C 322.72 379.40 322.60 371.09 323.72 365.38   Q 327.27 347.34 344.38 339.77   C 353.79 335.61 367.91 335.50 377.26 340.11   C 392.25 347.50 398.09 361.73 396.49 378.10   Q 396.43 378.77 395.75 378.77   L 344.48 378.79   Q 343.64 378.79 343.78 379.62   Z   M 344.52 365.39   L 375.78 365.23   A 0.12 0.12 0.0 0 0 375.90 365.11   L 375.90 365.02   A 15.58 11.23 -0.3 0 0 360.26 353.87   L 359.92 353.87   A 15.58 11.23 -0.3 0 0 344.40 365.18   L 344.40 365.27   A 0.12 0.12 0.0 0 0 344.52 365.39   Z"
     id="path58"
     inkscape:export-filename="C:\Users\Didier\Downloads\logos opérateurs\ellipse68.png"
     inkscape:export-xdpi="11.183699"
     inkscape:export-ydpi="11.183699" />
  <path
     fill="#e30520"
     d="   M 189.41 346.04   L 189.39 338.79   A 0.32 0.31 0.0 0 1 189.71 338.48   L 209.73 338.49   A 0.47 0.46 -90.0 0 1 210.19 338.96   Q 210.04 364.04 210.16 392.30   C 210.23 407.40 209.90 422.48 196.54 431.78   Q 188.82 437.15 179.74 438.26   C 165.77 439.98 150.70 437.28 138.78 429.27   A 0.64 0.63 33.6 0 1 138.60 428.40   L 147.76 414.49   A 0.81 0.81 0.0 0 1 148.87 414.26   C 158.15 420.17 170.38 422.48 180.54 418.66   C 188.03 415.85 189.98 408.99 189.88 401.69   Q 189.86 400.52 189.20 401.48   C 186.65 405.22 179.84 407.51 175.13 408.23   Q 169.05 409.16 162.85 408.29   C 149.25 406.37 138.29 395.99 135.26 383.09   C 128.85 355.77 150.00 331.10 178.55 338.69   Q 185.34 340.49 188.92 346.18   Q 189.41 346.97 189.41 346.04   Z   M 190.5893 373.4668   A 17.97 17.28 0.5 0 0 172.7708 356.0307   A 17.97 17.28 0.5 0 0 154.6507 373.1532   A 17.97 17.28 0.5 0 0 172.4692 390.5893   A 17.97 17.28 0.5 0 0 190.5893 373.4668   Z"
     id="path60"
     inkscape:export-filename="C:\Users\Didier\Downloads\logos opérateurs\ellipse68.png"
     inkscape:export-xdpi="11.183699"
     inkscape:export-ydpi="11.183699" />
  <rect
     fill="#e30520"
     x="104.16"
     y="338.52"
     width="20.70"
     height="69.74"
     rx="0.30"
     id="rect62"
     inkscape:export-filename="C:\Users\Didier\Downloads\logos opérateurs\ellipse68.png"
     inkscape:export-xdpi="11.183699"
     inkscape:export-ydpi="11.183699" />
  <rect
     fill="#e30520"
     x="221.29"
     y="338.53"
     width="20.78"
     height="69.74"
     rx="0.52"
     id="rect64"
     inkscape:export-filename="C:\Users\Didier\Downloads\logos opérateurs\ellipse68.png"
     inkscape:export-xdpi="11.183699"
     inkscape:export-ydpi="11.183699" />
</svg>
