<?xml version="1.0" encoding="UTF-8" standalone="no"?>
<svg
   version="1.1"
   viewBox="0.00 0.00 600.00 273.00"
   id="svg78"
   sodipodi:docname="Free_caraibe.svg"
   inkscape:version="1.1.2 (b8e25be833, 2022-02-05)"
   xmlns:inkscape="http://www.inkscape.org/namespaces/inkscape"
   xmlns:sodipodi="http://sodipodi.sourceforge.net/DTD/sodipodi-0.dtd"
   xmlns="http://www.w3.org/2000/svg"
   xmlns:svg="http://www.w3.org/2000/svg">
  <defs
     id="defs82" />
  <sodipodi:namedview
     id="namedview80"
     pagecolor="#ffffff"
     bordercolor="#666666"
     borderopacity="1.0"
     inkscape:pageshadow="2"
     inkscape:pageopacity="0.0"
     inkscape:pagecheckerboard="0"
     showgrid="false"
     inkscape:zoom="1.0658333"
     inkscape:cx="219.54652"
     inkscape:cy="-4.691165"
     inkscape:window-width="1920"
     inkscape:window-height="991"
     inkscape:window-x="-9"
     inkscape:window-y="-9"
     inkscape:window-maximized="1"
     inkscape:current-layer="svg78" />
  <g
     stroke-width="2"
     fill="none"
     stroke-linecap="butt"
     id="g38"
     transform="matrix(1.0597178,0,0,1.0892183,-18.597556,-1.670473)">
    <path
       stroke="#660000"
       vector-effect="non-scaling-stroke"
       d="m 103.55,60.79 a 0.54,0.54 0 0 1 -0.28,-0.73 q 4.11,-9.01 8.23,-17.56 c 4.88,-10.1 12.5,-14.3 23.82,-12 4.92,1.01 10.82,2.18 15.81,1.32 q 5.59,-0.97 6.79,-6.89 1.2,-5.94 -4.52,-7.55 -6.93,-1.96 -13.93,-1.2 Q 113.32,19 92.88,35.28 C 84.46,41.98 78.72,51.16 73.53,60.43 A 1.28,1.27 -75.1 0 1 72.4,61.09 Q 62.73,60.97 53.18,60.82 C 52,60.8 50.61,61.18 49.87,62.2 q -2.56,3.54 -2.96,7.63 a 1.12,1.12 0 0 0 1.12,1.23 L 67.36,71 q 1.55,0 0.89,1.4 -13.71,29.01 -26.02,55.37 c -4.13,8.87 -8.56,17.55 -12.3,26.77 q -0.19,0.47 0.07,0.9 1.85,3 5.46,2.55 5.22,-0.64 10.76,-1.67 c 3.85,-0.72 6.82,0.77 9.01,-3.63 q 10.96,-21.96 21.75,-42.27 6.16,-11.57 11.01,-21.22 2.33,-4.63 4.58,-8.61 2.44,-4.29 4.36,-8.7 a 1.44,1.43 -77.9 0 1 1.31,-0.86 l 25.79,-0.01 a 3.02,3.01 15.6 0 0 2.58,-1.45 l 3.42,-5.6 q 0.75,-1.24 -0.44,-2.07 -1.29,-0.89 -2.77,-0.9 -11.39,-0.15 -22.44,-0.04 -0.44,0 -0.83,-0.17"
       id="path2" />
    <path
       stroke="#660000"
       vector-effect="non-scaling-stroke"
       d="m 303.78,98.23 a 0.82,0.82 0 0 1 -1.18,0.08 c -3.2,-2.85 -6.55,-3.22 -10.27,-1.49 q -13.53,6.24 -24.52,9.22 -11.38,3.09 -24.7,1.55 -3.94,-0.46 -7.37,-3.15 c -2.2,-1.73 -3.02,-3.55 -2.4,-6.46 q 0.54,-2.51 1.09,-4.87 a 1.3,1.29 -82.5 0 1 1.31,-1.01 q 4.04,0.15 7.78,-0.22 9.19,-0.9 18.78,-2.04 19.81,-2.35 37.32,-9.6 5.13,-2.12 9.54,-6.32 3.85,-3.66 4.21,-9.47 0.39,-6.36 -5.8,-8.92 -7.62,-3.14 -16.24,-3.49 -9.8,-0.4 -15.4,0.02 -17.29,1.31 -33.89,8.01 -8.57,3.46 -19.16,11.1 c -3.31,2.39 -6.11,5.36 -8.99,8.15 q -3.35,3.26 -6.22,8.52 -3.02,5.55 -2.88,12.75 c 0.07,3.64 1.74,8.66 4.35,11.1 q 7.31,6.86 18.74,8.14 c 4.2,0.48 8.56,0.87 12.85,0.85 q 33.27,-0.17 62.28,-18.17 a 1.04,1.04 0 0 1 1.56,0.64 q 1.72,7.17 6.83,10.76 6.32,4.45 14.01,5.65 13.87,2.17 28.44,0.28 26.28,-3.41 48.69,-17.12 0.44,-0.27 0.57,-0.76 0.81,-3.05 -1.88,-4.73 -4.3,-2.69 -9.7,-0.26 -6.12,2.75 -12.26,5.25 -16.77,6.84 -34.48,5.68 c -3.22,-0.21 -6.57,-1.18 -9.23,-3.09 -3.42,-2.45 -2.84,-7.97 -1.68,-11.49 a 1.68,1.66 7.9 0 1 1.54,-1.15 q 24.59,-0.85 49.15,-6.75 c 9.79,-2.36 28.95,-8.75 28.66,-21.52 -0.24,-10.2 -17.05,-12.02 -24.21,-11.95 -7.15,0.07 -13.82,-0.26 -20.92,0.74 q -19.5,2.73 -38.32,13.55 c -12.49,7.17 -22.77,16.72 -25.51,30.95 q -0.12,0.59 -0.49,1.04"
       id="path4" />
    <path
       stroke="#660000"
       vector-effect="non-scaling-stroke"
       d="m 181.07,68.44 c 3.56,-5.97 3.32,-13.67 -5.34,-14.35 q -5.18,-0.4 -10.65,-0.2 c -4.95,0.18 -9.23,1.47 -13.69,3.49 q -12.58,5.67 -23.97,13.78 c -0.73,0.52 -1.6,1.16 -1.61,2.14 -0.07,4.53 6.72,7.42 10.18,5.06 5.73,-3.9 11.11,-6.64 17.89,-8.39 a 1.31,1.3 -3.2 0 1 1.62,1.44 c -0.22,1.51 -0.56,2.73 -1.32,4.05 q -9.91,17.29 -18.75,33.57 c -1.41,2.6 -4.6,7.36 -3.33,10.27 q 0.16,0.38 0.52,0.61 2.69,1.72 5.34,1.91 5.97,0.41 14.62,0.28 c 2.18,-0.03 3.86,-1.33 4.83,-3.19 q 8.88,-17.01 21.17,-30.81 c 5.99,-6.72 16.24,-15.71 25.62,-15.27 q 5.22,0.24 10.89,0.32 2.56,0.03 5.35,-1.52 5.5,-3.06 6.98,-8.64 0.4,-1.5 0.46,-2.72 c 0.14,-3 -3.82,-6.35 -6.67,-6.37 -4.82,-0.03 -11,-0.6 -15.31,0.96 q -5.24,1.91 -11.29,5.33 c -4.41,2.5 -8.56,5.92 -12.81,8.92 q -1.94,1.37 -0.73,-0.67"
       id="path6" />
    <path
       stroke="#0f0f0e"
       vector-effect="non-scaling-stroke"
       d="m 445.82,172.57 a 0.65,0.65 0 0 1 -1.04,-0.55 q 0.43,-10.36 0.18,-21.53 -0.03,-1.33 0.27,-2.31 a 0.99,0.98 -81.9 0 0 -0.96,-1.28 l -13.25,0.27 a 1.16,1.12 25.7 0 0 -0.63,0.21 q -0.84,0.58 -0.43,1.52 0.25,0.57 0.24,1.18 -0.27,25.28 -0.24,47.76 0.02,12.56 5.94,22.43 3.57,5.95 9.37,9.48 7,4.26 13.18,4.94 4.19,0.47 10.03,0.44 5.13,-0.02 8.93,-1.25 c 4.85,-1.56 8.85,-3.54 12.57,-7.17 q 3.23,-3.16 4.68,-5.15 7.92,-10.83 7.27,-22.81 -0.51,-9.55 -5.28,-17.24 c -5.26,-8.49 -13.32,-13.15 -23.1,-14.88 q -5.18,-0.92 -9.67,-0.55 -10.58,0.87 -18.06,6.49"
       id="path8" />
    <path
       stroke="#0f0f0e"
       vector-effect="non-scaling-stroke"
       d="m 405.87,153.39 a 6.38,6.38 0 0 0 -6.38,-6.38 h -4.84 a 6.38,6.38 0 0 0 -6.38,6.38 v 1.24 a 6.38,6.38 0 0 0 6.38,6.38 h 4.84 a 6.38,6.38 0 0 0 6.38,-6.38 v -1.24"
       id="path10" />
    <path
       stroke="#0f0f0e"
       vector-effect="non-scaling-stroke"
       d="m 426.9447,152.3348 a 5.66,5.66 0 0 0 -5.892,-5.418 l -5.695,0.2387 a 5.66,5.66 0 0 0 -5.418,5.8921 l 0.1156,2.7576 a 5.66,5.66 0 0 0 5.892,5.418 l 5.695,-0.2387 a 5.66,5.66 0 0 0 5.418,-5.8921 l -0.1156,-2.7576"
       id="path12" />
    <path
       stroke="#0f0f0e"
       vector-effect="non-scaling-stroke"
       d="m 263.17,228.73 q 0.18,1.59 -0.31,3.38 a 1.47,1.46 8.1 0 0 1.4,1.85 l 11.91,0.14 a 0.83,0.83 0 0 0 0.84,-0.83 q 0.02,-14.5 -0.07,-29.16 c -0.04,-7.32 -1.19,-17.13 -5.76,-22.99 q -6.17,-7.91 -12.58,-11.41 c -1.71,-0.94 -3.76,-1.26 -5.62,-1.92 -10.21,-3.62 -21.43,-1.96 -30.98,3.37 -7.42,4.14 -12.31,11.69 -15.15,19.6 -1.47,4.07 -0.71,8.59 -0.91,12.82 q -0.2,4.27 1.07,8.27 4.71,14.88 19.35,21.2 c 5.57,2.4 11.33,1.84 17.18,2 6.63,0.18 13.49,-2.81 18.81,-6.68 a 0.52,0.52 0 0 1 0.82,0.36"
       id="path14" />
    <path
       stroke="#0f0f0e"
       vector-effect="non-scaling-stroke"
       d="m 133.6,192 q -4.53,23.25 13.66,37.29 6.14,4.73 14.48,5.49 4.16,0.38 9.93,0.29 c 7.55,-0.13 13.96,-2.87 19.78,-7.49 q 3.15,-2.5 4.96,-4.96 4.74,-6.45 6.83,-13.77 0.16,-0.57 -0.42,-0.68 -1.97,-0.38 -3.69,0.22 c -3.11,1.08 -7.09,0.68 -10.35,0.54 a 2.21,2.2 -76.8 0 0 -2.12,1.32 c -1.08,2.49 -2.33,4.88 -4.4,6.72 -4.84,4.3 -11.78,7.77 -17.97,5.8 q -11.87,-3.79 -16.06,-15.83 c -2.74,-7.86 0.57,-16.88 5.95,-22.59 3.13,-3.34 11.87,-7.45 16.71,-6.17 q 11.03,2.92 15.72,12.78 a 1.91,1.9 77.2 0 0 1.72,1.09 l 12.89,-0.06 a 0.93,0.93 0 0 0 0.91,-1.13 c -0.57,-2.57 -1.41,-5.4 -3.05,-7.51 -1.63,-2.09 -2.86,-4.85 -4.68,-6.64 q -6.8,-6.67 -14.7,-9 -10.82,-3.18 -21.9,-0.42 -14.64,3.64 -21.82,17.84 -1.7,3.37 -2.38,6.87"
       id="path16" />
    <path
       stroke="#0f0f0e"
       vector-effect="non-scaling-stroke"
       d="m 362.57,234.87 c 5.15,-0.31 11.18,-3.03 14.11,-6.14 a 0.82,0.82 0 0 1 1.4,0.44 q 0.29,1.82 -0.25,3.67 a 0.9,0.9 0 0 0 0.86,1.15 l 12.61,-0.01 q 0.65,0 0.66,-0.65 0.25,-26.5 -0.15,-36.52 -0.19,-4.58 -2.13,-10.18 c -1.95,-5.59 -7.35,-11.69 -12.11,-14.73 q -12.81,-8.18 -28.81,-5 -11.91,2.36 -19.19,11.08 -5.89,7.06 -8.25,17.5 c -0.56,2.5 -0.2,4.84 -0.37,7.33 q -0.17,2.44 0.6,4.95 c 1.33,4.3 2.29,9.64 5.29,13.17 3.4,4.01 7.21,8.39 11.96,10.68 q 6.1,2.95 11.9,3.29 5.74,0.34 11.87,-0.03"
       id="path18" />
    <path
       stroke="#0f0f0e"
       vector-effect="non-scaling-stroke"
       d="m 520.68,202.99 h 54.85 a 1.74,1.74 0 0 0 1.74,-1.7 c 0.05,-2.13 -1.05,-3.74 -1.22,-5.83 q -0.43,-5.07 -2.12,-8.71 -6.68,-14.3 -20.72,-18.8 -9.22,-2.95 -18.94,-1.44 -8.18,1.28 -14.53,5.73 -13.34,9.35 -14.41,26.93 c -0.16,2.65 0.43,4.65 0.51,7.17 0.16,4.66 3.41,11.42 5.79,14.6 3.82,5.08 10.6,10.73 17.27,12.61 5.23,1.48 9.83,1.62 15.38,1.55 q 5.2,-0.07 9.23,-1.46 17.32,-5.98 22.26,-23.61 0.24,-0.87 -0.65,-0.89 -5.33,-0.1 -10.87,-0.22 -1.7,-0.04 -3.27,0.63 -0.47,0.2 -0.68,0.65 -6.49,13.62 -21.35,12.95 -2.24,-0.11 -4.18,-1.15 -1.95,-1.06 -3.82,-2.19 -8.99,-5.46 -10.88,-16.09 -0.13,-0.73 0.61,-0.73"
       id="path20" />
    <path
       stroke="#0f0f0e"
       vector-effect="non-scaling-stroke"
       d="m 298.96,188.12 c 0.03,-2.66 -0.17,-5.67 1.14,-8.07 a 1.51,1.45 -86.4 0 1 0.72,-0.66 q 0.88,-0.38 1.85,-0.37 7.32,0.1 14.77,-0.33 a 0.89,0.89 0 0 0 0.83,-1 q -0.54,-4.13 -0.23,-8.77 0.06,-0.91 -0.86,-0.91 -8.15,0.07 -17.68,-0.11 -3.95,-0.07 -6.4,0.94 c -6.75,2.8 -8.33,8.07 -8.24,15.1 q 0.34,24.07 0.21,49.07 a 0.92,0.91 90 0 0 0.91,0.92 l 12,0.08 a 1.03,1.02 90 0 0 1.03,-1.04 q -0.35,-21.47 -0.05,-44.85"
       id="path22" />
    <path
       stroke="#0f0f0e"
       vector-effect="non-scaling-stroke"
       d="m 414.8234,168.6081 a 0.62,0.62 0 0 0 -0.6211,-0.619 l -12.4999,0.0219 a 0.62,0.62 0 0 0 -0.619,0.621 l 0.1132,64.8199 a 0.62,0.62 0 0 0 0.6211,0.619 l 12.4999,-0.0219 a 0.62,0.62 0 0 0 0.619,-0.621 l -0.1132,-64.8199"
       id="path24" />
    <path
       stroke="#660000"
       vector-effect="non-scaling-stroke"
       d="m 352.36,81.95 c 10.46,-2.19 22,-4.76 29.62,-12.11 1.77,-1.7 3.87,-5.95 0.68,-7.45 q -3.24,-1.51 -6.24,-1.24 c -11.96,1.07 -24.52,9.12 -32.83,16.97 q -2.34,2.2 -4,4.66 a 0.22,0.22 0 0 0 0.18,0.35 q 6.45,0.11 12.59,-1.18"
       id="path26" />
    <path
       stroke="#660000"
       vector-effect="non-scaling-stroke"
       d="m 284.2,63.61 c -7.43,-7.22 -25.89,3.3 -32.59,8.12 -3.98,2.86 -7.88,7.12 -11.81,10.72 q -1.74,1.6 0.57,1.1 c 2.9,-0.62 5.7,-0.52 8.64,-1.03 q 8.04,-1.39 12.23,-2.38 6.02,-1.43 13.02,-4.55 c 4.12,-1.83 10.28,-5.92 10.62,-10.08 q 0.09,-1.14 -0.68,-1.9"
       id="path28" />
    <path
       stroke="#0f0f0e"
       vector-effect="non-scaling-stroke"
       d="m 465.7094,223.1766 a 22.38,20.89 91 0 0 21.2774,-22.012 22.38,20.89 91 0 0 -20.4962,-22.7412 22.38,20.89 91 0 0 -21.2774,22.012 22.38,20.89 91 0 0 20.4962,22.7412"
       id="path30" />
    <path
       stroke="#0f0f0e"
       vector-effect="non-scaling-stroke"
       d="m 221.97,192.21 q -3.4,7.82 -0.85,15.18 1.1,3.19 3.08,5.78 c 3.37,4.41 7.21,7.82 12.63,9.5 q 4.13,1.27 8.36,0.1 c 5.01,-1.38 10.23,-4.55 13.04,-9.22 q 6.21,-10.33 2.46,-21.3 -0.98,-2.86 -2.9,-4.88 c -4.99,-5.23 -11.77,-11.01 -19.76,-8.89 q -11.41,3.02 -16.06,13.73"
       id="path32" />
    <path
       stroke="#0f0f0e"
       vector-effect="non-scaling-stroke"
       d="m 356.0513,222.9778 a 22.28,20.84 91.9 0 0 21.5672,-21.5768 22.28,20.84 91.9 0 0 -20.0898,-22.9588 22.28,20.84 91.9 0 0 -21.5672,21.5768 22.28,20.84 91.9 0 0 20.0898,22.9588"
       id="path34" />
    <path
       stroke="#0f0f0e"
       vector-effect="non-scaling-stroke"
       d="m 533.04,179.96 c -4.95,2.31 -9.05,7.37 -11.51,12.09 a 0.71,0.7 -76.5 0 0 0.63,1.03 l 37.15,-0.13 a 0.83,0.83 0 0 0 0.75,-1.18 q -2.53,-5.43 -7.35,-9.36 -9.05,-7.39 -19.67,-2.45"
       id="path36" />
  </g>
  <path
     fill="#cb0000"
     d="m 91.136223,64.543112 q 0.413287,0.185167 0.87956,0.185167 11.709887,-0.119814 23.780077,0.04357 1.56838,0.01089 2.93542,0.980297 1.26106,0.904052 0.46627,2.254682 l -3.62423,6.099623 a 3.2794321,3.1994844 88.004226 0 1 -2.73408,1.579366 l -27.330122,0.01089 a 1.5157693,1.5680887 2.4140046 0 0 -1.388227,0.936728 q -2.034659,4.803453 -4.62037,9.4762 -2.384365,4.335089 -4.853508,9.37817 -5.139631,10.510955 -11.667493,23.113215 -11.434355,22.12202 -23.048861,46.04126 c -2.320782,4.79256 -5.468145,3.16963 -9.548058,3.95386 q -5.870836,1.1219 -11.402563,1.819 -3.825582,0.49015 -5.78606,-2.77751 -0.275527,-0.46836 -0.07418,-0.9803 c 3.963344,-10.04259 8.657895,-19.49701 13.034529,-29.15837 q 13.045126,-28.7118 27.573857,-60.310023 0.699414,-1.524905 -0.943149,-1.524905 l -20.484345,0.06535 a 1.1868839,1.2199245 0 0 1 -1.186884,-1.339739 q 0.423887,-4.454903 3.136765,-8.310737 c 0.784191,-1.111002 2.257198,-1.524905 3.507666,-1.503121 q 10.120304,0.163383 20.367776,0.294089 A 1.3463909,1.3936307 3.2444224 0 0 59.323494,64.15099 C 64.823429,54.053938 70.90621,44.054915 79.829034,36.757151 Q 101.48967,19.024676 129.20129,15.95308 q 7.41802,-0.827806 14.76186,1.307062 6.06159,1.753641 4.78993,8.223599 -1.27167,6.448173 -7.19548,7.504714 c -5.288,0.936729 -11.54033,-0.337657 -16.75414,-1.437768 -11.99601,-2.505202 -20.07106,2.069515 -25.242485,13.070621 q -4.366029,9.312816 -8.721471,19.126674 a 0.57224761,0.58817792 0 0 0 0.296719,0.79513 z"
     id="path42"
     style="stroke-width:1.07436" />
  <path
     fill="#cb0000"
     d="m 303.32352,105.32345 q 0.39209,-0.49016 0.51926,-1.13279 c 2.90363,-15.499577 13.79752,-25.901612 27.0334,-33.711308 q 19.94389,-11.785343 40.60839,-14.758909 c 7.52399,-1.089218 14.5923,-0.729777 22.16929,-0.806022 7.58758,-0.07624 25.40144,1.906132 25.65577,13.01616 0.30732,13.909319 -19.99688,20.869424 -30.37152,23.43998 q -26.02667,6.426388 -52.08513,7.352223 a 1.8088103,1.7796292 84.217204 0 0 -1.63196,1.252602 c -1.22927,3.834044 -1.84391,9.846534 1.78033,12.515114 2.81884,2.08042 6.36891,3.13696 9.78119,3.36569 q 18.7676,1.26349 36.53908,-6.18676 6.50666,-2.72305 12.99213,-5.7184 5.72248,-2.6468 10.27927,0.2832 2.85064,1.82989 1.99226,5.15201 -0.13776,0.53371 -0.60403,0.8278 -23.74828,14.93318 -51.59766,18.64742 -15.44009,2.05862 -30.13837,-0.30499 -8.14924,-1.30706 -14.84665,-6.15408 -5.41517,-3.91029 -7.23788,-11.71999 a 1.1021066,1.1327871 0 0 0 -1.65316,-0.6971 q -30.74241,19.60593 -65.99922,19.7911 c -4.54619,0.0217 -9.16656,-0.40301 -13.61738,-0.92584 q -12.11256,-1.39419 -19.8591,-8.86623 c -2.76587,-2.6577 -4.53559,-8.12558 -4.60977,-12.09033 q -0.14837,-7.84237 3.05198,-13.887531 3.04139,-5.729289 6.59145,-9.280141 c 3.05198,-3.038919 6.01919,-6.273898 9.52686,-8.877129 q 11.22241,-8.321629 20.30419,-12.090324 17.59132,-7.297763 35.91384,-8.72464 5.93441,-0.457472 16.31965,-0.02179 9.13477,0.381226 17.20981,3.801372 6.55966,2.788399 6.14637,9.715828 -0.3815,6.328359 -4.46142,10.314898 -4.67335,4.574717 -10.1097,6.883861 -18.55566,7.896832 -39.54867,10.456495 -10.16269,1.24171 -19.9015,2.222006 -3.96334,0.403011 -8.2446,0.239628 a 1.3671767,1.4158381 1.6376861 0 0 -1.38823,1.10011 q -0.58284,2.570557 -1.1551,5.304497 c -0.65702,3.16963 0.21194,5.15201 2.54333,7.03635 q 3.63483,2.93 7.81012,3.43103 14.11544,1.67741 26.17503,-1.68828 11.64629,-3.24587 25.98428,-10.0426 c 3.94214,-1.88435 7.49221,-1.48133 10.8833,1.62294 a 0.86896859,0.89315907 0 0 0 1.25047,-0.0871 z m 51.48109,-17.732478 c 11.08464,-2.385388 23.31379,-5.184679 31.38883,-13.190434 1.87571,-1.851671 4.10111,-6.48085 0.72062,-8.114677 q -3.43349,-1.64472 -6.61264,-1.350631 c -12.67423,1.165464 -25.98428,9.933672 -34.79054,18.484037 q -2.47974,2.396279 -4.23887,5.075756 a 0.23313791,0.23962804 0 0 0 0.19075,0.381228 q 6.83518,0.119813 13.34185,-1.285279 z M 282.57424,67.614707 c -7.8737,-7.864156 -27.4361,3.594421 -34.5362,8.844454 -4.21768,3.115164 -8.35058,7.755235 -12.51526,11.676421 q -1.84392,1.742749 0.60403,1.19814 c 3.07318,-0.675315 6.04039,-0.566394 9.15596,-1.121895 q 8.52014,-1.514013 12.96035,-2.59234 6.37951,-1.557582 13.79752,-4.955943 c 4.36604,-1.99327 10.8939,-6.448173 11.25421,-10.979321 q 0.0954,-1.241709 -0.72061,-2.069516 z"
     id="path44"
     style="stroke-width:1.07436" />
  <path
     fill="#cb0000"
     d="m 173.28554,72.875632 q -1.28226,2.222005 0.7736,0.729777 c 4.5038,-3.267655 8.90163,-6.992783 13.57499,-9.715828 q 6.41129,-3.725128 11.96421,-5.805534 c 4.56738,-1.699181 11.11644,-1.078327 16.22428,-1.04565 3.0202,0.02178 7.21668,3.670666 7.06831,6.938321 q -0.0635,1.328846 -0.48747,2.962674 -1.56838,6.077839 -7.39683,9.410847 -2.95661,1.688289 -5.66948,1.655612 -6.0086,-0.08714 -11.54033,-0.34855 c -9.94015,-0.479256 -20.80226,9.312817 -27.14997,16.632364 q -13.02393,15.031215 -22.43423,33.558815 c -1.02793,2.02595 -2.80825,3.44194 -5.11843,3.47461 q -9.16656,0.14159 -15.49307,-0.30498 -2.80826,-0.20696 -5.6589,-2.08041 -0.3815,-0.25052 -0.55105,-0.66442 c -1.34584,-3.16963 2.03465,-8.35431 3.52886,-11.18628 q 9.3679,-17.732469 19.86971,-36.565054 c 0.80538,-1.437769 1.16568,-2.766615 1.39883,-4.411335 a 1.3881844,1.4160307 1.232387 0 0 -1.71675,-1.568474 c -7.18489,1.906132 -12.88617,4.89059 -18.95835,9.138542 -3.66662,2.570555 -10.86211,-0.577287 -10.78793,-5.511445 0.0106,-1.067434 0.93255,-1.764535 1.70614,-2.330928 q 12.07019,-8.833561 25.40144,-15.009429 c 4.72634,-2.200221 9.26194,-3.605313 14.50754,-3.801372 q 5.79665,-0.217844 11.286,0.217844 c 9.17715,0.740669 9.43148,9.12765 5.65888,15.630283 z"
     id="path46"
     style="stroke-width:1.07436" />
  <path
     fill="#1d1d1c"
     d="m 453.84583,186.29594 q 7.9267,-6.12141 19.13851,-7.06903 4.75813,-0.40301 10.24746,0.59908 c 10.36404,1.88435 18.90537,6.9601 24.47948,16.20756 q 5.05487,8.37609 5.59532,18.77813 0.68881,13.04884 -7.70415,24.84507 -1.53659,2.16755 -4.95948,5.60947 c -3.94215,3.95387 -8.18103,6.11052 -13.32065,7.8097 q -4.02693,1.33973 -9.46328,1.36152 -6.18875,0.0327 -10.62897,-0.47925 -6.54906,-0.74067 -13.96708,-5.38074 -6.14637,-3.84494 -9.92955,-10.32579 -6.27353,-10.75059 -6.29474,-24.43117 -0.0318,-24.48563 0.25434,-52.02107 0.0106,-0.66443 -0.25434,-1.28527 -0.43448,-1.02388 0.45569,-1.65562 a 1.2418463,1.2075728 50.741831 0 1 0.66762,-0.22874 l 14.04126,-0.29408 a 1.0386769,1.0781669 2.1761836 0 1 1.01733,1.3942 q -0.31791,1.06743 -0.28612,2.51609 0.26492,12.16657 -0.19075,23.45087 a 0.68881657,0.70799194 0 0 0 1.1021,0.59907 z m 21.07715,55.12164 a 22.137637,24.376561 0.71451309 0 0 22.54804,-23.97587 22.137637,24.376561 0.71451309 0 0 -21.72019,-24.77014 22.137637,24.376561 0.71451309 0 0 -22.54804,23.97588 22.137637,24.376561 0.71451309 0 0 21.72019,24.77013 z"
     id="path52"
     style="stroke-width:1.07436" />
  <rect
     fill="#1d1d1c"
     x="392.85907"
     y="158.45551"
     width="18.651033"
     height="15.249057"
     rx="6.7609997"
     id="rect54"
     style="stroke-width:1.07436" />
  <rect
     fill="#1d1d1c"
     x="408.75467"
     y="176.61134"
     transform="matrix(0.99907338,-0.04303926,0.04074339,0.99916964,0,0)"
     width="18.037291"
     height="15.335477"
     rx="5.9982996"
     id="rect56"
     style="stroke-width:1.07436" />
  <path
     fill="#1d1d1c"
     d="m 260.28838,247.46645 a 0.55105326,0.56639355 0 0 0 -0.86897,-0.39212 c -5.6377,4.21528 -12.90736,7.47203 -19.9333,7.27598 -6.19934,-0.17428 -12.30332,0.43568 -18.20595,-2.17844 q -15.51427,-6.88386 -20.50554,-23.09143 -1.34584,-4.35687 -1.1339,-9.00784 c 0.21195,-4.60739 -0.59343,-9.53066 0.96435,-13.96378 3.0096,-8.61571 8.19162,-16.83931 16.05472,-21.34868 10.12031,-5.80553 22.01035,-7.61363 32.83007,-3.67066 1.97107,0.71888 4.14348,1.06743 5.95561,2.0913 q 6.79279,3.81226 13.33124,12.42797 c 4.84291,6.38283 6.06159,17.06806 6.10398,25.04114 q 0.0954,15.96795 0.0741,31.7616 a 0.87956577,0.90405126 0 0 1 -0.89016,0.90406 l -12.62125,-0.15249 a 1.5905432,1.5575066 87.397348 0 1 -1.48359,-2.01506 q 0.51926,-1.9497 0.32851,-3.68155 z M 216.628,207.6882 q -3.60304,8.51768 -0.90075,16.53432 1.16569,3.47462 3.26392,6.29569 c 3.57125,4.80345 7.64057,8.51769 13.38424,10.34757 q 4.37663,1.38331 8.85924,0.10893 c 5.30919,-1.50313 10.84091,-4.95595 13.81872,-10.0426 q 6.58085,-11.25162 2.60691,-23.20036 -1.03853,-3.11516 -3.07319,-5.31537 c -5.28798,-5.69662 -12.47287,-11.9923 -20.94002,-9.68316 Q 221.5557,196.02266 216.628,207.6882 Z"
     id="path58"
     style="stroke-width:1.07436" />
  <path
     fill="#1d1d1c"
     d="m 122.98075,207.45945 q 0.7206,-3.81226 2.52212,-7.48293 7.60877,-15.46689 23.12304,-19.43165 11.74168,-3.00625 23.20782,0.45747 8.37178,2.53788 15.57785,9.80296 c 1.92869,1.94971 3.23215,4.95595 4.95949,7.23241 1.73793,2.29825 2.62809,5.38074 3.23214,8.18003 a 0.98553755,1.0129731 0 0 1 -0.96435,1.23082 l -13.65977,0.0653 a 2.0799542,2.0139023 87.985194 0 1 -1.82271,-1.18726 q -4.97007,-10.73969 -16.65876,-13.92021 c -5.12903,-1.3942 -14.39097,3.08249 -17.70788,6.72049 -5.70129,6.21943 -9.20895,16.04418 -6.30532,24.60544 q 4.44022,13.11419 17.01906,17.24232 c 6.55965,2.14576 13.9141,-1.63383 19.04313,-6.31747 2.19361,-2.00415 3.51826,-4.60739 4.66276,-7.31954 a 2.3318554,2.406681 1.8299587 0 1 2.2466,-1.43777 c 3.45468,0.15249 7.67236,0.58818 10.96808,-0.58818 q 1.82272,-0.65353 3.91036,-0.23963 0.61464,0.11981 0.44507,0.74067 -2.2148,7.97308 -7.23786,14.99854 -1.91809,2.67948 -5.25621,5.40252 c -6.16756,5.03219 -12.96034,8.01665 -20.96121,8.15825 q -6.11457,0.098 -10.523,-0.31588 -8.83805,-0.8278 -15.34471,-5.9798 -19.27627,-15.29263 -14.47574,-40.61696 z"
     id="path60"
     style="stroke-width:1.07436" />
  <path
     fill="#1d1d1c"
     d="m 380.57695,247.46645 c -3.10498,3.38746 -9.49507,6.35014 -14.95263,6.6878 q -6.49606,0.40301 -12.57884,0.0327 -6.14637,-0.37033 -12.61064,-3.58353 c -5.03367,-2.4943 -9.07119,-7.26508 -12.67423,-11.63285 -3.17916,-3.84494 -4.19648,-9.66136 -5.60591,-14.345 q -0.81598,-2.73394 -0.63583,-5.39163 c 0.18016,-2.71215 -0.20135,-5.26093 0.3921,-7.98397 q 2.50093,-11.37144 8.74266,-19.06132 7.71475,-9.49799 20.336,-12.06854 16.95548,-3.46372 30.53046,5.44609 c 5.04426,3.31122 10.76673,9.95546 12.83319,16.04419 q 2.05585,6.09961 2.25719,11.08824 0.4239,10.91396 0.15896,39.77825 -0.0106,0.708 -0.69941,0.708 l -13.36305,0.0109 a 0.95374601,0.98029654 0 0 1 -0.91135,-1.25259 q 0.57225,-2.01506 0.26493,-3.99744 a 0.86896859,0.89315907 0 0 0 -1.4836,-0.47925 z m -21.86061,-6.2654 a 22.084991,24.267267 1.3457392 0 0 22.85515,-23.50185 22.084991,24.267267 1.3457392 0 0 -21.28952,-25.00715 22.084991,24.267267 1.3457392 0 0 -22.85515,23.50185 22.084991,24.267267 1.3457392 0 0 21.28952,25.00715 z"
     id="path62"
     style="stroke-width:1.07436" />
  <path
     fill="#1d1d1c"
     d="m 532.52987,220.22509 q 2.00288,11.5784 11.52974,17.52553 1.98167,1.23081 4.04812,2.38539 2.05585,1.13278 4.42962,1.25259 15.74741,0.72979 22.62497,-14.10537 0.22254,-0.49015 0.72062,-0.70799 1.66375,-0.72978 3.46527,-0.68621 5.87084,0.1307 11.51913,0.23963 0.94315,0.0217 0.68882,0.9694 -5.23501,19.20292 -23.58932,25.71644 -4.27066,1.51403 -9.7812,1.59027 c -5.88143,0.0763 -10.75613,-0.0763 -16.29845,-1.68829 -7.06832,-2.04773 -14.25321,-8.20182 -18.30133,-13.73505 -2.52213,-3.46371 -5.96621,-10.82682 -6.13576,-15.90258 -0.0848,-2.74483 -0.71002,-4.92327 -0.54047,-7.8097 q 1.13391,-19.14846 15.27054,-29.33265 6.72921,-4.84702 15.3977,-6.24122 10.30046,-1.64472 20.07105,1.56848 14.87844,4.90147 21.95736,20.4773 1.79093,3.96476 2.2466,9.48709 c 0.18015,2.27647 1.34584,4.03011 1.29286,6.35014 a 1.843909,1.89524 0 0 1 -1.84391,1.85168 h -58.12552 q -0.7842,0 -0.64644,0.79512 z m 13.74454,-25.87983 c -5.24559,2.5161 -9.59044,8.02755 -12.19735,13.16866 a 0.74218535,0.77294608 4.5609267 0 0 0.66763,1.1219 l 39.36851,-0.14161 a 0.87956577,0.90405126 0 0 0 0.79479,-1.28528 q -2.68109,-5.91445 -7.78892,-10.19508 -9.59045,-8.04932 -20.84466,-2.66859 z"
     id="path64"
     style="stroke-width:1.07436" />
  <path
     fill="#1d1d1c"
     d="m 298.21567,203.23329 q -0.31791,25.46592 0.0529,48.85144 a 1.0809121,1.1218949 0 0 1 -1.09151,1.13279 l -12.71662,-0.0871 a 0.96434319,1.0020809 0 0 1 -0.96433,-1.00208 q 0.13776,-27.23046 -0.22254,-53.44794 c -0.0954,-7.65721 1.57898,-13.39739 8.73207,-16.4472 q 2.59631,-1.10011 6.7822,-1.02387 10.0991,0.19606 18.7358,0.11982 0.97495,0 0.91136,0.99119 -0.32851,5.05397 0.24374,9.55244 a 0.94314883,0.96940435 0 0 1 -0.87957,1.08922 q -7.8949,0.46837 -15.65203,0.35944 -1.02793,-0.0109 -1.96048,0.40301 a 1.5366901,1.6446135 2.145814 0 0 -0.763,0.71889 c -1.38823,2.61412 -1.17629,5.89266 -1.20808,8.78999 z"
     id="path66"
     style="stroke-width:1.07436" />
  <rect
     fill="#1d1d1c"
     x="406.12811"
     y="182.06018"
     transform="matrix(0.99999839,-0.00179392,0.00169806,0.99999856,0,0)"
     width="14.560523"
     height="71.953758"
     rx="0.6570251"
     id="rect68"
     style="stroke-width:1.07436" />
  <path
     style="fill:#cb0000;fill-opacity:1;stroke-width:0.938233"
     d="m 147.13762,252.4814 c -2.15485,-0.69575 -5.36634,-2.16019 -7.13665,-3.25431 -4.30122,-2.6583 -11.53569,-10.48994 -13.50515,-14.61995 -0.87409,-1.83299 -1.84279,-3.33271 -2.15267,-3.33271 -0.30988,0 -0.62485,-0.73886 -0.69994,-1.6419 -0.0751,-0.90305 -0.43294,-5.06603 -0.79523,-9.25107 -0.72112,-8.33 0.41261,-15.11814 3.57534,-21.40722 3.06308,-6.09091 10.48121,-13.16435 16.91769,-16.13158 5.30246,-2.44444 6.78483,-2.69182 16.1586,-2.69663 9.19663,-0.005 10.89479,0.26395 15.59344,2.4671 8.78114,4.11739 17.28,13.39702 19.56418,21.3615 l 0.83336,2.90575 h -7.77343 -7.77344 l -2.66779,-4.22057 c -2.52853,-4.00024 -9.40512,-9.62366 -10.46824,-8.56054 -0.2721,0.2721 -1.10792,-0.11848 -1.85739,-0.86795 -2.01337,-2.01336 -7.63206,-1.64158 -12.95655,0.85733 -8.93271,4.19231 -13.59913,11.14752 -14.33241,21.36216 -0.37571,5.23373 -0.0779,7.02636 1.87011,11.25879 5.66133,12.30004 18.04316,18.05952 27.95443,13.00317 5.11118,-2.60753 9.85756,-6.95919 11.24572,-10.31049 1.03811,-2.50623 1.60897,-2.81901 5.14494,-2.81901 2.1875,0 5.93772,-0.26871 8.33382,-0.59713 l 4.35655,-0.59713 -1.36615,3.87207 c -3.5218,9.98185 -10.01841,17.29859 -19.16948,21.58943 -4.50321,2.11151 -6.71086,2.50331 -15.12432,2.68415 -6.26364,0.13464 -11.27831,-0.24895 -13.76934,-1.05326 z"
     id="path3450" />
  <path
     style="fill:#cb0000;fill-opacity:1;stroke-width:0.938233"
     d="m 223.62238,252.53391 c -10.19765,-3.78979 -17.74363,-11.14454 -21.36503,-20.8236 -1.50238,-4.01547 -1.94461,-7.38246 -1.94461,-14.80559 0,-8.96857 0.20928,-10.04485 3.14378,-16.16813 3.96552,-8.27465 9.14675,-13.5301 17.24157,-17.48854 5.98407,-2.92627 6.92828,-3.10558 16.20574,-3.07755 12.9547,0.0392 18.61016,2.16132 26.32834,9.8795 9.86458,9.86458 11.16763,14.85755 11.18711,42.86634 l 0.0139,19.93745 h -7.03675 -7.03674 v -3.26606 -3.26606 l -6.33308,3.49256 c -6.09913,3.36354 -6.71431,3.50182 -16.65363,3.74347 -6.95625,0.16913 -11.43869,-0.16461 -13.75057,-1.02379 z m 20.53239,-12.37529 c 9.13471,-3.81673 14.28167,-11.42113 15.06238,-22.25401 0.25102,-3.48319 0.083,-6.33403 -0.37333,-6.33521 -0.45636,-0.001 -0.87227,-1.21965 -0.92424,-2.70772 -0.18357,-5.25615 -9.00454,-13.97251 -16.37495,-16.18074 -3.6851,-1.10408 -10.2702,-0.41337 -10.2702,1.07724 0,0.47645 -0.57207,0.64675 -1.27127,0.37844 -2.42225,-0.9295 -9.37813,5.54714 -12.56097,11.69557 -5.17359,9.99404 -3.93568,18.96998 3.8499,27.91505 6.23741,7.16635 15.10451,9.65295 22.86268,6.41138 z"
     id="path3489" />
  <path
     style="fill:#cb0000;fill-opacity:1;stroke-width:0.938233"
     d="m 283.81694,222.59578 c 0.002,-33.29203 0.17292,-34.40855 5.92811,-38.63542 2.36757,-1.73885 3.97794,-1.94316 15.3158,-1.94316 h 12.67005 l 0.38399,5.39484 0.38398,5.39484 -8.66304,0.0144 c -4.76467,0.008 -9.29635,0.41432 -10.07039,0.90315 -1.19174,0.75261 -1.44917,5.35005 -1.68031,30.00909 l -0.27296,29.12031 h -6.99834 -6.99835 z"
     id="path3528" />
  <path
     style="fill:#cb0000;fill-opacity:1;stroke-width:0.938233"
     d="m 346.04301,252.44145 c -5.82068,-1.82002 -10.06156,-4.75361 -15.1899,-10.50748 -11.94267,-13.39938 -11.37123,-36.87509 1.23733,-50.83126 12.32456,-13.64181 36.11408,-15.23993 51.55409,-3.46326 4.70683,3.59008 9.6761,11.40178 11.32069,17.79614 1.08187,4.20644 1.43822,10.77362 1.43822,26.50508 v 20.91312 h -7.03675 -7.03674 v -2.8147 c 0,-2.84386 -2.02096,-3.91981 -3.34342,-1.78003 -0.3517,0.56906 -2.80429,2.04265 -5.45021,3.27465 -4.09758,1.90792 -6.20164,2.23204 -14.19308,2.18639 -5.16028,-0.0295 -11.14539,-0.60488 -13.30023,-1.27865 z m 19.759,-11.98745 c 5.6723,-1.67594 12.99014,-9.30388 14.65625,-15.27734 4.73546,-16.97789 -5.24033,-32.36978 -20.97951,-32.36978 -12.49548,0 -22.15351,10.52244 -22.17482,24.1595 -0.005,3.22518 0.39979,5.86396 0.89962,5.86396 0.49983,0 0.68038,0.5952 0.40123,1.32266 -1.30812,3.4089 5.77193,12.20193 12.25602,15.22132 5.30562,2.47062 9.26509,2.75674 14.94121,1.07968 z"
     id="path3567" />
  <path
     style="fill:#cb0000;fill-opacity:1;stroke-width:0.938233"
     d="m 395.1415,171.3882 c -0.90231,-0.99704 -1.55276,-3.29428 -1.55276,-5.48398 0,-5.2362 2.0689,-6.87373 8.68444,-6.87373 4.55725,0 5.51037,0.32737 7.19742,2.47211 1.06951,1.35967 1.94457,3.41375 1.94457,4.56464 0,1.15089 -0.87506,3.20497 -1.94457,4.56464 -1.6995,2.16057 -2.62708,2.47211 -7.36045,2.47211 -4.05527,0 -5.80598,-0.43105 -6.96865,-1.71579 z"
     id="path3606" />
  <path
     style="fill:#cb0000;fill-opacity:1;stroke-width:0.938233"
     d="m 424.80724,173.29435 c -4.74806,-0.22656 -6.10935,-0.66086 -7.27131,-2.31978 -1.9125,-2.73048 -1.80973,-7.51382 0.21516,-10.01445 1.43067,-1.76681 2.42883,-1.99406 7.66845,-1.74585 5.59082,0.26483 6.13649,0.48761 7.59328,3.10004 1.66137,2.97927 1.26329,6.39577 -1.11707,9.58717 -1.00835,1.35192 -2.36407,1.61831 -7.08851,1.39287 z"
     id="path3645" />
  <path
     style="fill:#cb0000;fill-opacity:1;stroke-width:0.938233"
     d="m 406.724,217.20094 v -35.65286 h 7.03675 7.03675 v 35.65286 35.65285 h -7.03675 -7.03675 z"
     id="path3684" />
  <path
     style="fill:#cb0000;fill-opacity:1;stroke-width:0.938233"
     d="m 462.51871,252.52027 c -8.77174,-2.83868 -16.56827,-9.17919 -19.91381,-16.19485 -0.8326,-1.74599 -1.88275,-3.17452 -2.33365,-3.17452 -0.45091,0 -0.60315,-0.35061 -0.3383,-0.77914 0.26484,-0.42853 -0.12743,-3.06731 -0.87173,-5.86396 -1.04853,-3.93983 -1.35576,-12.1095 -1.36439,-36.28106 l -0.0111,-31.19625 h 7.50587 7.50586 v 13.60438 c 0,7.48241 0.31665,13.59903 0.70367,13.59249 0.38703,-0.007 3.19086,-1.27315 6.23074,-2.81469 3.03988,-1.54155 6.31196,-2.80282 7.2713,-2.80282 0.95934,0 1.74425,-0.32686 1.74425,-0.72635 0,-0.39949 4.08371,-0.42773 9.07492,-0.0628 15.89531,1.16232 25.66452,7.6217 32.01087,21.16552 2.25907,4.82111 2.54204,6.52384 2.54204,15.29618 0,9.3498 -0.17024,10.21703 -3.22317,16.41908 -3.77115,7.66111 -10.67383,14.90376 -17.41795,18.27582 -4.03472,2.01736 -6.13535,2.37508 -15.01173,2.55639 -6.49586,0.13269 -11.72254,-0.24289 -14.10365,-1.01345 z m 17.38747,-11.83406 c 0,-0.49983 0.64376,-0.66175 1.43059,-0.35982 2.00609,0.76981 8.39374,-3.69202 11.57738,-8.0869 3.60915,-4.98229 5.18336,-11.07371 4.58036,-17.72371 -1.00756,-11.11157 -8.54932,-19.84338 -18.78133,-21.74494 -1.94622,-0.36169 -3.73051,-0.34707 -3.9651,0.0325 -0.23458,0.37957 -1.43416,0.4975 -2.66572,0.26207 -2.76794,-0.52912 -8.70572,2.43156 -12.01041,5.98862 -7.03879,7.5763 -8.9994,19.57027 -4.72826,28.9249 2.80468,6.14282 5.26793,8.70213 10.95811,11.38549 4.75309,2.24145 13.60438,3.10143 13.60438,1.32179 z"
     id="path3723" />
  <path
     style="fill:#cb0000;fill-opacity:1;stroke-width:0.938233"
     d="m 542.76779,252.5066 c -8.78957,-2.41235 -17.92257,-10.63479 -22.35882,-20.12961 -2.19994,-4.70849 -2.48615,-6.46452 -2.4735,-15.17605 0.0177,-12.22343 2.11672,-18.2201 9.02206,-25.77565 11.39963,-12.47301 30.52692,-15.36706 46.74371,-7.07256 4.30273,2.20074 10.96125,8.91791 13.26306,13.37987 0.99827,1.93511 2.12311,3.51922 2.49965,3.52024 0.37653,0.001 0.77894,1.34135 0.89424,2.97849 0.1153,1.63714 0.53751,3.21957 0.93824,3.51651 0.40072,0.29693 0.85799,2.96756 1.01614,5.93472 l 0.28755,5.39484 h -30.07645 -30.07645 l 0.0206,2.11103 c 0.0555,5.69151 6.15705,13.75824 13.78979,18.23132 3.50229,2.05248 4.91478,2.33577 9.86198,1.97792 3.2551,-0.23545 5.93501,-0.90005 6.14278,-1.52337 0.20271,-0.60813 0.70286,-0.89909 1.11143,-0.64658 1.39209,0.86036 6.91538,-3.71987 9.81204,-8.13672 l 2.88921,-4.40548 7.7172,-0.0511 7.7172,-0.0511 -0.94126,2.4757 c -0.5177,1.36164 -0.74373,2.67324 -0.5023,2.91468 0.24144,0.24143 0.0433,0.92173 -0.44018,1.51178 -0.48353,0.59005 -2.5124,3.30802 -4.5086,6.03994 -1.9962,2.73192 -5.03231,6.00212 -6.74691,7.26711 -1.7146,1.265 -3.45373,2.82963 -3.86473,3.47698 -0.411,0.64734 -0.75374,0.89228 -0.76164,0.54432 -0.008,-0.34797 -2.32594,0.17979 -5.15121,1.17279 -5.99582,2.10736 -19.08124,2.37086 -25.82484,0.52003 z m 32.29088,-44.56153 c 0.83951,-1.35837 -4.87361,-9.1102 -8.6077,-11.67933 -8.90006,-6.12341 -17.26894,-5.76771 -24.82083,1.05496 -3.33306,3.01123 -8.24468,9.53352 -8.24468,10.94838 0,0.84704 41.14718,0.52712 41.67321,-0.32401 z"
     id="path3762" />
</svg>
