<?xml version="1.0" encoding="UTF-8" standalone="no"?>
<svg
   version="1.1"
   viewBox="0.00 0.00 1920.00 1080.00"
   id="svg70"
   sodipodi:docname="Free_mobile.svg"
   inkscape:version="1.1.2 (b8e25be833, 2022-02-05)"
   xmlns:inkscape="http://www.inkscape.org/namespaces/inkscape"
   xmlns:sodipodi="http://sodipodi.sourceforge.net/DTD/sodipodi-0.dtd"
   xmlns="http://www.w3.org/2000/svg"
   xmlns:svg="http://www.w3.org/2000/svg">
  <defs
     id="defs74" />
  <sodipodi:namedview
     id="namedview72"
     pagecolor="#ffffff"
     bordercolor="#666666"
     borderopacity="1.0"
     inkscape:pageshadow="2"
     inkscape:pageopacity="0.0"
     inkscape:pagecheckerboard="0"
     showgrid="false"
     inkscape:zoom="0.33307292"
     inkscape:cx="1176.9195"
     inkscape:cy="914.21423"
     inkscape:window-width="1920"
     inkscape:window-height="991"
     inkscape:window-x="-9"
     inkscape:window-y="-9"
     inkscape:window-maximized="1"
     inkscape:current-layer="svg70" />
  <g
     stroke-width="2"
     fill="none"
     stroke-linecap="butt"
     id="g34"
     transform="matrix(3.2534723,0,0,3.8545934,-1852.8869,-1457.1093)">
    <path
       stroke="#e19197"
       vector-effect="non-scaling-stroke"
       d="m 648.71,488.5 a 0.24,0.24 0 0 1 0.22,0.34 q -36.77,78.25 -73.96,157.28 c -1.1,2.35 -1.56,4.5 -0.05,6.76 1.55,2.31 3.77,4.33 6.74,3.87 q 14.25,-2.19 28.25,-4.33 c 3.24,-0.49 5.57,-0.67 7.25,-3.92 q 51.3,-98.66 82.77,-159.24 a 1.43,1.43 0 0 1 1.27,-0.77 q 25.51,0.03 51.06,0 3.46,-0.01 5.33,-3.26 2.86,-4.99 5.7,-10.45 c 1.5,-2.88 0.75,-7.1 -2.82,-7.92 q -1.66,-0.38 -3.39,-0.38 -24.15,-0.01 -44.74,0.01 a 0.58,0.57 12.9 0 1 -0.52,-0.82 q 8.39,-17.28 16.47,-33.88 c 5.12,-10.51 12.37,-19.02 23.88,-22.31 10.11,-2.9 19.91,-2.61 30.03,0.14 13.32,3.63 26.43,6.52 34.96,-7.33 4.55,-7.38 2.95,-14.96 -5.24,-18.69 q -6.45,-2.93 -14.69,-3.23 c -20.71,-0.75 -43.06,5.02 -61.97,13.82 -14.64,6.81 -28.5,14.85 -40.87,25.4 -14.99,12.79 -25.77,28.81 -34.81,46.25 a 1.22,1.21 13.7 0 1 -1.08,0.65 q -20.64,-0.02 -39.93,0 c -2.49,0 -4.48,0.49 -5.66,2.66 q -2.86,5.24 -5.76,11.26 -1.48,3.06 0.49,5.87 c 1.57,2.22 4.21,2.25 6.64,2.24 q 17.25,-0.05 34.43,-0.02"
       id="path2" />
    <path
       stroke="#e19197"
       vector-effect="non-scaling-stroke"
       d="m 920.83,481.63 c 20.99,-1.31 100.39,-6.43 103.36,-36.43 1.33,-13.35 -16.73,-16.53 -26.14,-17.45 q -17.83,-1.74 -36.83,2 c -24.55,4.83 -50.18,16.38 -66.6,35.13 -11.81,13.48 -17.56,33.04 -0.8,45.39 8.07,5.94 19.52,7.99 29.52,8.44 30.85,1.39 58.13,-7.52 85.71,-23.01 7.4,-4.16 -1.26,-8.57 -4.49,-10.21 a 3.04,3.04 0 0 0 -2.59,-0.06 q -3.47,1.52 -7.01,3.21 c -18.95,9 -41.42,15.3 -61.93,12.36 -5.12,-0.74 -14.24,-3.1 -14.51,-9.3 q -0.17,-3.99 1.31,-9.26 0.21,-0.76 1,-0.81"
       id="path4" />
    <path
       stroke="#e19197"
       vector-effect="non-scaling-stroke"
       d="m 1051.98,481.64 c 20.57,-1.17 104.87,-6.88 103.62,-38.49 -0.43,-10.67 -14.7,-14.02 -23.16,-15.06 -26.56,-3.24 -54.78,2.74 -78.39,15.24 -14.94,7.91 -30.38,19.9 -36.79,35.36 -6.85,16.51 0.57,30.3 16.83,36.2 q 6.51,2.36 13.87,3.21 c 31.48,3.62 62.73,-5.56 89.99,-21.09 2.21,-1.26 7.82,-3.85 4.38,-7.27 q -2.33,-2.31 -5.87,-4.03 -1.97,-0.95 -3.86,0 c -21.61,10.83 -46.19,18.76 -69.82,15.06 -3.72,-0.58 -12.14,-3.17 -12.66,-7.84 q -0.51,-4.65 1.01,-10.6 0.17,-0.66 0.85,-0.69"
       id="path6" />
    <path
       stroke="#e19197"
       vector-effect="non-scaling-stroke"
       d="m 846.51,454.94 c 4.14,-7.35 11.84,-19.93 -1.32,-24.1 -11.48,-3.64 -23.23,-0.1 -34.17,4.83 q -14.55,6.56 -30.14,17.79 c -5.86,4.23 1.75,8.69 5.03,10.07 a 3.14,3.12 39.7 0 0 2.93,-0.26 c 6.75,-4.43 21.33,-13.01 29.26,-11.16 q 1.02,0.24 0.69,1.24 -1.37,4.13 -3.68,8.26 -14.28,25.51 -27.53,49.58 c -3.35,6.1 4.01,8.82 8.48,9.37 4.44,0.55 18.7,1.78 21.24,-3.1 q 11.55,-22.27 28.04,-40.64 c 8.04,-8.97 17.14,-17.31 27.7,-20.38 5.82,-1.7 12.27,-0.7 18.46,-0.4 8.63,0.43 15.66,-3.99 18.65,-12.28 2.05,-5.68 0.36,-11.38 -5.69,-13.28 -10.97,-3.43 -23.62,1.63 -33.32,7.5 q -13.18,7.97 -23.88,17.56 -2.2,1.96 -0.75,-0.6"
       id="path8" />
    <path
       stroke="#b2b2b2"
       vector-effect="non-scaling-stroke"
       d="m 942.97,561.89 q -0.7,0.47 -0.7,-0.37 l 0.04,-18.84 a 2.39,2.38 -89.9 0 0 -2.38,-2.4 l -10.11,0.01 q -2.59,0 -2.58,2.59 0.11,21.43 -0.07,41.75 -0.11,11.84 1.76,17.62 c 7.75,23.96 36.81,33.46 56.94,17.34 11.37,-9.1 16.02,-23.73 12.1,-37.8 -6.63,-23.83 -34.7,-33.47 -55,-19.9"
       id="path10" />
    <path
       stroke="#b2b2b2"
       vector-effect="non-scaling-stroke"
       d="m 1022.44,547.89 a 7.8,7.8 0 0 0 -7.8,-7.8 7.8,7.8 0 0 0 -7.8,7.8 7.8,7.8 0 0 0 7.8,7.8 7.8,7.8 0 0 0 7.8,-7.8"
       id="path12" />
    <path
       stroke="#b2b2b2"
       vector-effect="non-scaling-stroke"
       d="m 1034.01,601.1 c 4.41,15.52 17.78,25.78 34.04,26.49 1.46,0.06 3.11,-0.59 3.15,-2.32 q 0.15,-5.71 -0.03,-10.38 -0.08,-1.92 -1.98,-2.21 c -1.84,-0.28 -3.83,-0.29 -5.65,-0.82 q -10.71,-3.13 -14.51,-13.16 -1.45,-3.83 -1.41,-10.11 0.16,-22.8 0.05,-45.86 -0.01,-2.52 -2.52,-2.49 l -10.59,0.12 a 1.9,1.9 0 0 0 -1.88,1.91 q 0.19,22.52 -0.06,44.94 -0.09,8.68 1.39,13.89"
       id="path14" />
    <path
       stroke="#b2b2b2"
       vector-effect="non-scaling-stroke"
       d="m 779.56,568.95 c -11.04,-13.32 -30.47,-17.48 -45.5,-8.64 q -18.62,10.95 -18.56,33.39 0.05,15.95 0.04,31.72 0,2.31 2.31,2.31 l 10.36,0.02 q 2.19,0.01 2.24,-2.18 0.32,-13.96 0.03,-26.01 -0.24,-10.04 1.18,-14.36 c 6.15,-18.69 31.77,-19.28 39.47,-1.35 q 1.62,3.78 1.54,11.42 -0.14,14.11 -0.07,27.64 0.01,1.59 0.22,3.1 a 2.02,2.02 0 0 0 2,1.74 l 10.35,-0.01 q 2.41,0 2.44,-2.4 0.21,-15.57 -0.04,-30.27 c -0.13,-7.8 1.36,-14.44 7.36,-19.44 q 9.77,-8.14 21.96,-3.56 c 5.09,1.91 9.78,7.1 11.63,12.29 q 1.39,3.9 1.29,11.34 -0.21,16.3 -0.04,29.5 a 2.33,2.33 0 0 0 2.32,2.3 h 9.94 q 2.75,0 2.72,-2.75 -0.12,-13.21 0.08,-28.28 0.12,-9.21 -1.41,-14.58 c -7.27,-25.66 -38.77,-35.43 -59.07,-17.07 -1.4,1.27 -2.61,2.68 -3.82,4.13 q -0.49,0.58 -0.97,0"
       id="path16" />
    <path
       stroke="#b2b2b2"
       vector-effect="non-scaling-stroke"
       d="m 1089.15,593.48 q 27.88,0.03 53.55,-0.01 c 1.64,0 2.6,-1.07 2.59,-2.69 -0.11,-11.01 -5.58,-21.1 -14.15,-27.76 -12.6,-9.79 -30.17,-9.78 -43.1,-0.39 -12.1,8.79 -17.65,24.64 -13.34,38.86 5.41,17.8 22.67,28.91 41.22,25.4 11.65,-2.2 22.84,-10.7 27.02,-22.56 0.67,-1.9 -0.58,-3.54 -2.58,-3.56 q -5.74,-0.05 -10.83,0.01 a 2.19,2.18 15.8 0 0 -1.8,1 q -1.1,1.74 -2.36,3.24 c -11.93,14.21 -33.77,7.21 -36.96,-10.65 a 0.76,0.75 84.9 0 1 0.74,-0.89"
       id="path18" />
    <path
       stroke="#b2b2b2"
       vector-effect="non-scaling-stroke"
       d="m 921.6,591.59 a 35.98,35.98 0 0 0 -35.98,-35.98 35.98,35.98 0 0 0 -35.98,35.98 35.98,35.98 0 0 0 35.98,35.98 35.98,35.98 0 0 0 35.98,-35.98"
       id="path20" />
    <path
       stroke="#b2b2b2"
       vector-effect="non-scaling-stroke"
       d="m 1021.76,567.29 a 2.44,2.44 0 0 0 -2.44,-2.44 h -10.08 a 2.44,2.44 0 0 0 -2.44,2.44 v 58.02 a 2.44,2.44 0 0 0 2.44,2.44 h 10.08 a 2.44,2.44 0 0 0 2.44,-2.44 v -58.02"
       id="path22" />
    <path
       stroke="#e19197"
       vector-effect="non-scaling-stroke"
       d="m 981.28,440.56 c -20.87,-1.18 -41.27,12.8 -54.52,28.26 a 0.21,0.21 0 0 0 0.17,0.35 c 13.58,-0.76 59.04,-6.02 62.18,-23.92 0.64,-3.65 -5.5,-4.55 -7.83,-4.69"
       id="path24" />
    <path
       stroke="#e19197"
       vector-effect="non-scaling-stroke"
       d="m 1113.14,440.57 c -21.16,-1.28 -41.95,12.79 -55.12,28.4 a 0.13,0.13 0 0 0 0.11,0.22 c 13.96,-0.84 60.21,-6.22 62.37,-24.33 0.37,-3.1 -5.24,-4.16 -7.36,-4.29"
       id="path26" />
    <path
       stroke="#b2b2b2"
       vector-effect="non-scaling-stroke"
       d="m 984.3,591.58 a 20.96,20.96 0 0 0 -20.96,-20.96 20.96,20.96 0 0 0 -20.96,20.96 20.96,20.96 0 0 0 20.96,20.96 20.96,20.96 0 0 0 20.96,-20.96"
       id="path28" />
    <path
       stroke="#b2b2b2"
       vector-effect="non-scaling-stroke"
       d="m 1115.55,571.59 q -12.76,-3.48 -22.26,6.25 a 0.37,0.37 0 0 0 0.26,0.63 l 31.17,-0.03 q 1.27,0 0.35,-0.88 c -2.7,-2.59 -5.88,-4.97 -9.52,-5.97"
       id="path30" />
    <path
       stroke="#b2b2b2"
       vector-effect="non-scaling-stroke"
       d="m 906.58,591.58 a 20.96,20.96 0 0 0 -20.96,-20.96 20.96,20.96 0 0 0 -20.96,20.96 20.96,20.96 0 0 0 20.96,20.96 20.96,20.96 0 0 0 20.96,-20.96"
       id="path32" />
  </g>
  <path
     fill="#c3232f"
     d="m 257.67298,425.85969 q -55.89465,-0.11566 -112.01704,0.0771 c -7.90594,0.0386 -16.49511,-0.0771 -21.60307,-8.63428 q -6.40935,-10.83141 -1.5942,-22.62646 9.43506,-23.20466 18.74,-43.40273 c 3.8391,-8.36448 10.3135,-10.25321 18.41465,-10.25321 q 62.75949,-0.0771 129.91115,0 a 4.6663161,3.9673155 89.334207 0 0 3.51375,-2.50549 C 322.4496,271.29045 357.52205,209.53987 406.29158,160.23962 446.53703,119.57366 491.63015,88.582723 539.26099,62.332946 600.78416,28.412517 673.49926,6.1715118 740.87865,9.062459 q 26.80864,1.156377 47.79351,12.450336 c 26.64596,14.377635 31.8515,43.595456 17.04821,72.042353 -27.75211,53.386122 -70.40515,42.246342 -113.74138,28.254162 -32.92515,-10.60013 -64.80919,-11.71794 -97.70177,-0.53963 -37.44749,12.6816 -61.03515,45.48421 -77.69293,85.99598 q -26.28805,63.98625 -53.58469,130.59363 a 2.1992301,1.8852017 88.597479 0 0 1.69182,3.16077 q 66.98899,-0.0771 145.56034,-0.0386 5.62851,0 11.02927,1.46474 c 11.6149,3.16076 14.05499,19.42715 9.1748,30.52839 q -9.23988,21.04607 -18.54479,40.2805 -6.08401,12.52743 -17.34102,12.56597 -83.12621,0.11567 -166.12229,0 a 4.6524651,5.5120687 0 0 0 -4.13191,2.96804 q -102.38677,233.51136 -269.2899,613.8055 c -5.46582,12.5275 -13.04642,13.2213 -23.58765,15.11 q -45.548628,8.2489 -91.910604,16.6905 c -9.662812,1.773 -16.885521,-6.0132 -21.928403,-14.9173 -4.912742,-8.7114 -3.416145,-16.9987 0.162671,-26.0571 Q 138.75858,728.7922 258.38874,427.17026 a 0.78083332,0.92510244 0 0 0 -0.71576,-1.31057 z"
     id="path38"
     style="stroke-width:3.54131" />
  <path
     fill="#c3232f"
     d="m 1139.7543,402.50084 q -4.8151,20.31372 -4.2621,35.69356 c 0.8785,23.89848 30.5502,32.99531 47.2081,35.84772 66.7286,11.3325 139.8341,-12.95145 201.4874,-47.64279 q 11.5173,-6.51425 22.8068,-12.37323 a 9.8905554,11.717964 0 0 1 8.4265,0.23127 c 10.5088,6.32154 38.6838,23.32029 14.6081,39.3554 -89.7307,59.70766 -178.4855,94.05208 -278.855,88.69419 -32.5348,-1.73457 -69.787,-9.63649 -96.0426,-32.53277 -54.5281,-47.60423 -35.8206,-123.00007 2.6029,-174.96001 53.422,-72.27362 136.8084,-116.79416 216.6811,-135.41186 q 61.816,-14.41618 119.8254,-7.70918 c 30.6153,3.54622 89.3729,15.80382 85.0458,67.26264 -9.6628,115.63782 -267.9885,135.37333 -336.2789,140.42287 q -2.5702,0.19271 -3.2535,3.12219 z m 199.926,-161.43037 c -67.9,-4.54841 -134.2708,49.33881 -177.3794,108.93083 a 0.68322915,0.80946465 0 0 0 0.5531,1.3491 c 44.1822,-2.92949 192.085,-23.20465 202.3009,-92.20188 2.0822,-14.06926 -17.8941,-17.5384 -25.4746,-18.07805 z"
     id="path40"
     style="stroke-width:3.54131" />
  <path
     fill="#c3232f"
     d="m 1566.9353,402.07686 q -4.9453,22.93482 -3.2859,40.85869 c 1.6917,18.00093 29.086,27.98434 41.1887,30.22001 76.8797,14.26199 156.85,-16.30495 227.1576,-58.05019 q 6.149,-3.66186 12.5583,0 11.5174,6.62991 19.0978,15.53402 c 11.1919,13.18272 -7.0598,23.16611 -14.2502,28.02289 -88.6895,59.86184 -190.3605,95.247 -292.7798,81.29339 q -23.9456,-3.27641 -45.1258,-12.37326 c -52.9013,-22.7421 -77.0421,-75.89695 -54.7558,-139.53629 20.8547,-59.59202 71.0883,-105.8086 119.6953,-136.29842 76.8144,-48.18242 168.6273,-71.23288 255.0395,-58.744 27.5244,4.00877 73.9515,16.92166 75.3504,58.05017 4.0669,121.84371 -270.2008,143.85343 -337.1247,148.36332 q -2.2124,0.11566 -2.7654,2.65967 z m 201.7476,-160.96784 c -68.8433,-4.93388 -136.4831,49.30026 -179.3312,109.47045 a 0.42295138,0.50109716 0 0 0 0.3578,0.84802 c 45.4185,-3.23786 195.8917,-23.97557 202.9191,-93.78227 1.2038,-11.94922 -17.0482,-16.0351 -23.9457,-16.5362 z"
     id="path42"
     style="stroke-width:3.54131" />
  <path
     fill="#c3232f"
     d="m 901.20977,296.49953 q -4.71753,9.86775 2.44011,2.31276 34.81215,-36.96556 77.69292,-67.68667 c 31.5587,-22.62645 72.7151,-42.13071 108.4057,-28.90944 19.6834,7.32372 25.1819,29.29492 18.5122,51.18901 -9.7279,31.95456 -32.5997,48.99188 -60.6772,47.33439 -20.139,-1.15638 -41.1239,-5.01097 -60.05908,1.54184 -34.3567,11.83361 -63.9633,43.98091 -90.12122,78.55661 q -53.64975,70.80889 -91.22735,156.65069 c -8.26382,18.81041 -54.65834,14.06926 -69.10376,11.94924 -14.543,-2.12003 -38.48857,-12.60452 -27.58943,-36.11753 q 43.10851,-92.78008 89.56809,-191.11075 7.51553,-15.91948 11.97277,-31.83894 1.07365,-3.85462 -2.24488,-4.77971 c -25.80005,-7.13099 -73.23567,25.94141 -95.19661,43.01726 a 12.05844,10.1887 88.936857 0 1 -9.53266,1.00219 c -10.67139,-5.31932 -35.43032,-22.51081 -16.36498,-38.81576 q 50.72163,-43.28706 98.05966,-68.57322 c 35.59298,-19.00314 73.82128,-32.64839 111.17115,-18.61768 42.81568,16.07366 17.76395,64.56445 4.29457,92.89571 z"
     id="path44"
     style="stroke-width:3.54131" />
  <path
     fill="#646464"
     d="m 1215.0397,708.74831 c 66.0454,-52.30683 157.3705,-15.14854 178.941,76.70642 12.7536,54.23413 -2.375,110.62683 -39.367,145.70362 -65.4924,62.13605 -160.0384,25.51742 -185.2528,-66.83865 q -6.0839,-22.27955 -5.7261,-67.91794 0.5856,-78.32533 0.2277,-160.92927 -0.032,-9.98339 8.394,-9.98339 l 32.8927,-0.0386 a 7.7432639,9.2124784 0.00240127 0 1 7.7432,9.25102 l -0.13,72.62053 q 0,3.23787 2.2774,1.42621 z m 134.466,114.44289 a 68.192777,80.792281 0 0 0 -68.1928,-80.79228 68.192777,80.792281 0 0 0 -68.1927,80.79228 68.192777,80.792281 0 0 0 68.1927,80.79228 68.192777,80.792281 0 0 0 68.1928,-80.79228 z"
     id="path50"
     style="stroke-width:3.54131" />
  <ellipse
     fill="#646464"
     cx="1448.2161"
     cy="654.78406"
     id="circle52"
     rx="25.377085"
     ry="30.06583"
     style="stroke-width:3.54131" />
  <path
     fill="#646464"
     d="m 1621.984,961.9951 c -52.9015,-2.73675 -96.4004,-42.28488 -110.7483,-102.10817 q -4.8152,-20.08243 -4.5223,-53.54032 0.8135,-86.41999 0.1953,-173.22542 a 6.1815971,7.3237277 0 0 1 6.1165,-7.36228 l 34.4543,-0.46254 q 8.1662,-0.11567 8.1988,9.59792 0.3579,88.88693 -0.1626,176.77167 -0.1304,24.20684 4.5873,38.96995 12.3632,38.66156 47.2079,50.72643 c 5.9214,2.04293 12.3957,2.08149 18.3822,3.16077 q 6.1816,1.11783 6.4418,8.51866 0.5857,18.00095 0.098,40.01067 c -0.13,6.66845 -5.4982,9.17393 -10.2483,8.94266 z"
     id="path54"
     style="stroke-width:3.54131" />
  <path
     fill="#646464"
     d="m 686.54567,735.96174 c 3.9367,-5.58915 7.87341,-11.02414 12.42827,-15.91947 66.04549,-70.77034 168.52986,-33.11096 192.18261,65.79791 q 4.9778,20.69917 4.58739,56.19997 -0.65069,58.08873 -0.26027,109.00791 0.0976,10.60014 -8.84945,10.60014 H 854.2947 a 7.5805902,8.9812028 0 0 1 -7.54804,-8.86558 q -0.55311,-50.88062 0.13005,-113.71051 0.32534,-28.67817 -4.19699,-43.71107 c -6.0189,-20.00536 -21.27771,-40.0107 -37.83787,-47.37296 Q 765.182,730.33403 733.39559,761.71042 c -19.52083,19.27298 -24.36852,44.86747 -23.94556,74.93331 q 0.81336,56.66252 0.13022,116.67854 -0.0976,9.25103 -7.93848,9.25103 l -33.67343,0.0386 a 6.5720139,7.786279 0 0 1 -6.50695,-6.70699 q -0.68324,-5.82044 -0.71576,-11.94925 -0.22773,-52.15264 0.22774,-106.54095 0.26028,-29.44911 -5.01035,-44.01946 c -25.05173,-69.11287 -108.4057,-66.83865 -128.41454,5.2037 q -4.61993,16.65185 -3.8391,55.35196 0.9435,46.44785 -0.0976,100.25798 -0.16261,8.44156 -7.28779,8.40301 l -33.70596,-0.0771 q -7.51552,0 -7.51552,-8.9041 0.0325,-60.78693 -0.13004,-122.26771 -0.1952,-86.49707 60.38444,-128.70487 c 48.89969,-34.07461 112.11465,-18.0395 148.03298,33.30368 q 1.56167,2.23566 3.15587,0 z"
     id="path56"
     style="stroke-width:3.54131" />
  <path
     fill="#646464"
     d="m 1690.6323,830.51491 a 2.9292068,2.440341 89.634017 0 0 -2.4077,3.4306 c 10.3787,68.84305 81.4345,95.82519 120.2485,41.05143 q 4.0992,-5.7819 7.6781,-12.4889 a 8.4059391,7.1226246 89.58717 0 1 5.8564,-3.85459 q 16.56,-0.23127 35.2349,-0.0386 c 6.5071,0.0771 10.5739,6.39862 8.394,13.72237 -13.5994,45.71546 -50.0058,78.47952 -87.9088,86.95961 -60.3519,13.52963 -116.5068,-29.29491 -134.1082,-97.90667 -14.0224,-54.81233 4.0344,-115.90762 43.4015,-149.7895 42.0673,-36.19463 99.2308,-36.23317 140.2245,1.50329 27.8823,25.6716 45.6787,64.56444 46.0366,107.00352 0.034,6.24444 -3.0907,10.36885 -8.4264,10.36885 q -83.5166,0.1541 -174.2234,0.0386 z m 85.8916,-84.37705 q -41.5143,-13.41398 -72.4223,24.09122 a 1.2037848,1.4261996 0 0 0 0.8461,2.42839 l 101.4107,-0.11566 q 4.1318,0 1.1385,-3.39204 c -8.7843,-9.98339 -19.1304,-19.15732 -30.973,-23.01193 z"
     id="path58"
     style="stroke-width:3.54131" />
  <path
     fill="#646464"
     d="m 1145.5131,823.22974 a 117.05993,138.68827 0 0 1 -117.06,138.68828 117.05993,138.68827 0 0 1 -117.05997,-138.68828 117.05993,138.68827 0 0 1 117.05997,-138.68829 117.05993,138.68827 0 0 1 117.06,138.68829 z m -48.8672,-0.0386 a 68.192777,80.792281 0 0 0 -68.1928,-80.79228 68.192777,80.792281 0 0 0 -68.19281,80.79228 68.192777,80.792281 0 0 0 68.19281,80.79229 68.192777,80.792281 0 0 0 68.1928,-80.79229 z"
     id="path60"
     style="stroke-width:3.54131" />
  <rect
     fill="#646464"
     x="1422.7086"
     y="720.15784"
     width="48.671944"
     height="242.45393"
     rx="7.9384723"
     id="rect62"
     style="stroke-width:3.54131" />
</svg>
