<?xml version="1.0" encoding="UTF-8" standalone="no"?>
<!DOCTYPE svg PUBLIC "-//W3C//DTD SVG 1.1//EN" "http://www.w3.org/Graphics/SVG/1.1/DTD/svg11.dtd">
<svg xmlns="http://www.w3.org/2000/svg" version="1.1" viewBox="0.00 0.00 250.00 250.00">
<g stroke-width="2.00" fill="none" stroke-linecap="butt">
<path stroke="#ffbc80" vector-effect="non-scaling-stroke" d="
  M 222.76 182.49
  L 224.87 182.48
  Q 225.56 182.47 225.67 181.78
  L 225.72 181.47
  A 0.51 0.50 4.4 0 0 225.22 180.89
  L 217.20 180.97
  A 0.66 0.62 -61.0 0 0 216.83 181.09
  Q 216.50 181.33 216.48 181.67
  Q 216.44 182.38 217.16 182.42
  L 219.47 182.52
  A 0.70 0.69 2.2 0 1 220.13 183.22
  L 220.07 191.49
  Q 220.06 192.44 221.00 192.49
  L 221.38 192.52
  Q 222.00 192.55 222.00 191.93
  L 222.03 183.24
  Q 222.03 182.50 222.76 182.49"
/>
<path stroke="#ffbc80" vector-effect="non-scaling-stroke" d="
  M 229.83 184.97
  Q 229.80 182.52 230.71 184.80
  Q 231.94 187.89 233.30 191.77
  A 0.92 0.92 0.0 0 0 234.61 192.28
  Q 235.07 192.03 235.27 191.52
  Q 236.54 188.23 237.78 185.08
  Q 238.71 182.70 238.78 185.26
  Q 238.86 188.22 238.61 191.29
  A 1.06 1.05 -83.1 0 0 239.48 192.41
  L 239.74 192.45
  Q 240.52 192.59 240.53 191.80
  L 240.67 181.86
  A 0.94 0.94 0.0 0 0 239.97 180.94
  C 239.12 180.72 237.97 180.64 237.52 181.62
  Q 236.00 184.99 235.00 188.00
  Q 234.48 189.60 233.79 188.07
  Q 232.67 185.54 231.75 182.84
  C 231.23 181.31 230.13 180.54 228.54 180.94
  Q 227.95 181.08 227.96 181.69
  L 228.02 191.76
  A 0.67 0.66 87.9 0 0 228.72 192.42
  L 229.03 192.40
  Q 229.91 192.35 229.90 191.47
  L 229.83 184.97"
/>
<path stroke="#ffbc80" vector-effect="non-scaling-stroke" d="
  M 47.8445 208.9897
  A 15.56 15.56 0.0 0 0 32.3117 193.4026
  L 29.3917 193.3975
  A 15.56 15.56 0.0 0 0 13.8045 208.9303
  L 13.7955 214.0903
  A 15.56 15.56 0.0 0 0 29.3283 229.6774
  L 32.2483 229.6825
  A 15.56 15.56 0.0 0 0 47.8355 214.1497
  L 47.8445 208.9897"
/>
<path stroke="#ffbc80" vector-effect="non-scaling-stroke" d="
  M 62.75 197.42
  L 63.10 195.43
  Q 63.31 194.19 62.05 194.19
  L 55.19 194.17
  Q 54.29 194.16 54.29 195.06
  L 54.28 228.30
  Q 54.28 228.82 54.80 228.82
  L 63.23 228.86
  Q 63.71 228.86 63.70 228.38
  Q 63.65 218.05 63.68 206.47
  C 63.68 202.83 69.89 202.05 72.36 202.16
  Q 73.75 202.22 73.76 200.83
  L 73.80 194.54
  Q 73.80 193.00 72.28 193.23
  Q 67.02 194.01 63.34 197.73
  A 0.35 0.35 0.0 0 1 62.75 197.42"
/>
<path stroke="#ffbc80" vector-effect="non-scaling-stroke" d="
  M 98.35 226.60
  L 98.79 228.28
  A 0.85 0.84 83.0 0 0 99.61 228.93
  L 106.32 228.93
  Q 107.08 228.93 107.07 228.18
  Q 107.01 215.92 107.08 203.49
  C 107.10 198.79 103.78 195.36 99.29 194.20
  Q 86.58 190.91 78.42 199.31
  Q 77.66 200.09 78.61 200.62
  L 83.50 203.35
  Q 84.31 203.80 84.91 203.09
  C 87.41 200.14 92.92 198.52 96.42 200.56
  Q 98.79 201.95 98.17 205.20
  Q 98.06 205.77 97.48 205.81
  C 89.71 206.32 76.74 209.02 76.29 218.65
  C 75.92 226.37 82.02 230.28 89.22 229.22
  Q 93.71 228.56 97.52 226.26
  A 0.56 0.56 0.0 0 1 98.35 226.60"
/>
<path stroke="#ffbc80" vector-effect="non-scaling-stroke" d="
  M 122.52 197.27
  L 122.08 194.96
  Q 121.91 194.01 120.96 194.14
  L 115.25 194.89
  Q 114.27 195.01 114.27 196.01
  L 114.27 228.27
  Q 114.27 228.77 114.77 228.77
  L 122.96 228.82
  Q 123.48 228.82 123.48 228.29
  L 123.46 204.44
  Q 123.46 203.92 123.84 203.58
  C 127.08 200.66 136.31 196.77 136.33 205.00
  Q 136.34 217.78 136.28 228.50
  Q 136.28 228.77 136.56 228.78
  L 145.19 228.80
  Q 145.58 228.80 145.58 228.41
  Q 145.46 216.93 145.57 204.73
  C 145.69 191.09 131.68 190.79 123.50 197.62
  Q 122.71 198.28 122.52 197.27"
/>
<path stroke="#ffbc80" vector-effect="non-scaling-stroke" d="
  M 176.22 196.50
  Q 176.24 198.21 175.17 196.88
  C 172.54 193.62 167.42 192.79 163.58 193.51
  C 157.62 194.64 153.70 199.74 152.45 205.47
  C 150.22 215.75 153.23 228.65 166.12 228.90
  Q 171.94 229.01 174.56 224.88
  Q 175.44 223.51 175.44 225.13
  C 175.46 230.26 175.51 235.60 168.63 235.63
  C 166.11 235.63 163.20 235.56 162.08 232.99
  A 0.99 0.98 -15.9 0 0 161.03 232.41
  L 153.48 233.57
  Q 152.51 233.72 152.89 234.63
  C 156.43 243.22 168.00 243.72 175.51 241.27
  Q 184.30 238.40 184.29 228.59
  Q 184.27 211.80 184.41 194.68
  Q 184.41 194.00 183.73 194.00
  L 177.21 194.01
  A 1.01 1.01 0.0 0 0 176.20 195.04
  L 176.22 196.50"
/>
<path stroke="#ffbc80" vector-effect="non-scaling-stroke" d="
  M 199.45 212.76
  L 221.44 212.77
  Q 221.95 212.77 221.98 212.26
  C 222.46 204.78 219.84 196.99 212.28 194.34
  C 203.72 191.33 193.84 194.43 190.94 203.73
  C 188.35 212.06 189.57 224.05 198.59 228.02
  C 206.02 231.29 216.35 229.70 221.44 222.44
  Q 221.72 222.04 221.29 221.80
  L 215.29 218.44
  Q 214.83 218.19 214.52 218.62
  C 212.71 221.15 210.55 222.64 207.34 222.72
  C 201.41 222.86 198.89 218.71 198.75 213.48
  Q 198.73 212.76 199.45 212.76"
/>
<path stroke="#ffbc80" vector-effect="non-scaling-stroke" d="
  M 38.6812 208.3475
  A 7.29 7.29 0.0 0 0 31.4167 201.0321
  L 30.2767 201.0281
  A 7.29 7.29 0.0 0 0 22.9613 208.2926
  L 22.9388 214.7525
  A 7.29 7.29 0.0 0 0 30.2033 222.0679
  L 31.3433 222.0719
  A 7.29 7.29 0.0 0 0 38.6587 214.8074
  L 38.6812 208.3475"
/>
<path stroke="#ffbc80" vector-effect="non-scaling-stroke" d="
  M 85.68 216.77
  C 84.30 220.01 86.87 223.75 90.57 223.09
  Q 94.64 222.35 97.54 219.64
  Q 97.97 219.25 97.97 218.67
  L 97.97 211.93
  Q 97.97 211.19 97.24 211.28
  C 93.28 211.72 87.39 212.75 85.68 216.77"
/>
<path stroke="#ffbc80" vector-effect="non-scaling-stroke" d="
  M 172.44 201.57
  Q 170.34 199.65 167.70 199.84
  C 159.91 200.38 160.08 211.56 161.77 216.82
  C 163.98 223.71 172.93 222.60 174.76 215.85
  C 175.90 211.65 176.07 204.88 172.44 201.57"
/>
<path stroke="#ffbc80" vector-effect="non-scaling-stroke" d="
  M 199.55 207.08
  L 212.55 206.90
  A 0.52 0.52 0.0 0 0 213.06 206.37
  L 213.06 206.19
  A 6.76 6.73 89.2 0 0 206.24 199.53
  L 205.66 199.53
  A 6.76 6.73 89.2 0 0 199.02 206.39
  L 199.03 206.57
  A 0.52 0.52 0.0 0 0 199.55 207.08"
/>
</g>
<path fill="#ff7900" d="
  M 0.00 0.00
  L 250.00 0.00
  L 250.00 250.00
  L 0.00 250.00
  L 0.00 0.00
  Z
  M 222.76 182.49
  L 224.87 182.48
  Q 225.56 182.47 225.67 181.78
  L 225.72 181.47
  A 0.51 0.50 4.4 0 0 225.22 180.89
  L 217.20 180.97
  A 0.66 0.62 -61.0 0 0 216.83 181.09
  Q 216.50 181.33 216.48 181.67
  Q 216.44 182.38 217.16 182.42
  L 219.47 182.52
  A 0.70 0.69 2.2 0 1 220.13 183.22
  L 220.07 191.49
  Q 220.06 192.44 221.00 192.49
  L 221.38 192.52
  Q 222.00 192.55 222.00 191.93
  L 222.03 183.24
  Q 222.03 182.50 222.76 182.49
  Z
  M 229.83 184.97
  Q 229.80 182.52 230.71 184.80
  Q 231.94 187.89 233.30 191.77
  A 0.92 0.92 0.0 0 0 234.61 192.28
  Q 235.07 192.03 235.27 191.52
  Q 236.54 188.23 237.78 185.08
  Q 238.71 182.70 238.78 185.26
  Q 238.86 188.22 238.61 191.29
  A 1.06 1.05 -83.1 0 0 239.48 192.41
  L 239.74 192.45
  Q 240.52 192.59 240.53 191.80
  L 240.67 181.86
  A 0.94 0.94 0.0 0 0 239.97 180.94
  C 239.12 180.72 237.97 180.64 237.52 181.62
  Q 236.00 184.99 235.00 188.00
  Q 234.48 189.60 233.79 188.07
  Q 232.67 185.54 231.75 182.84
  C 231.23 181.31 230.13 180.54 228.54 180.94
  Q 227.95 181.08 227.96 181.69
  L 228.02 191.76
  A 0.67 0.66 87.9 0 0 228.72 192.42
  L 229.03 192.40
  Q 229.91 192.35 229.90 191.47
  L 229.83 184.97
  Z
  M 47.8445 208.9897
  A 15.56 15.56 0.0 0 0 32.3117 193.4026
  L 29.3917 193.3975
  A 15.56 15.56 0.0 0 0 13.8045 208.9303
  L 13.7955 214.0903
  A 15.56 15.56 0.0 0 0 29.3283 229.6774
  L 32.2483 229.6825
  A 15.56 15.56 0.0 0 0 47.8355 214.1497
  L 47.8445 208.9897
  Z
  M 62.75 197.42
  L 63.10 195.43
  Q 63.31 194.19 62.05 194.19
  L 55.19 194.17
  Q 54.29 194.16 54.29 195.06
  L 54.28 228.30
  Q 54.28 228.82 54.80 228.82
  L 63.23 228.86
  Q 63.71 228.86 63.70 228.38
  Q 63.65 218.05 63.68 206.47
  C 63.68 202.83 69.89 202.05 72.36 202.16
  Q 73.75 202.22 73.76 200.83
  L 73.80 194.54
  Q 73.80 193.00 72.28 193.23
  Q 67.02 194.01 63.34 197.73
  A 0.35 0.35 0.0 0 1 62.75 197.42
  Z
  M 98.35 226.60
  L 98.79 228.28
  A 0.85 0.84 83.0 0 0 99.61 228.93
  L 106.32 228.93
  Q 107.08 228.93 107.07 228.18
  Q 107.01 215.92 107.08 203.49
  C 107.10 198.79 103.78 195.36 99.29 194.20
  Q 86.58 190.91 78.42 199.31
  Q 77.66 200.09 78.61 200.62
  L 83.50 203.35
  Q 84.31 203.80 84.91 203.09
  C 87.41 200.14 92.92 198.52 96.42 200.56
  Q 98.79 201.95 98.17 205.20
  Q 98.06 205.77 97.48 205.81
  C 89.71 206.32 76.74 209.02 76.29 218.65
  C 75.92 226.37 82.02 230.28 89.22 229.22
  Q 93.71 228.56 97.52 226.26
  A 0.56 0.56 0.0 0 1 98.35 226.60
  Z
  M 122.52 197.27
  L 122.08 194.96
  Q 121.91 194.01 120.96 194.14
  L 115.25 194.89
  Q 114.27 195.01 114.27 196.01
  L 114.27 228.27
  Q 114.27 228.77 114.77 228.77
  L 122.96 228.82
  Q 123.48 228.82 123.48 228.29
  L 123.46 204.44
  Q 123.46 203.92 123.84 203.58
  C 127.08 200.66 136.31 196.77 136.33 205.00
  Q 136.34 217.78 136.28 228.50
  Q 136.28 228.77 136.56 228.78
  L 145.19 228.80
  Q 145.58 228.80 145.58 228.41
  Q 145.46 216.93 145.57 204.73
  C 145.69 191.09 131.68 190.79 123.50 197.62
  Q 122.71 198.28 122.52 197.27
  Z
  M 176.22 196.50
  Q 176.24 198.21 175.17 196.88
  C 172.54 193.62 167.42 192.79 163.58 193.51
  C 157.62 194.64 153.70 199.74 152.45 205.47
  C 150.22 215.75 153.23 228.65 166.12 228.90
  Q 171.94 229.01 174.56 224.88
  Q 175.44 223.51 175.44 225.13
  C 175.46 230.26 175.51 235.60 168.63 235.63
  C 166.11 235.63 163.20 235.56 162.08 232.99
  A 0.99 0.98 -15.9 0 0 161.03 232.41
  L 153.48 233.57
  Q 152.51 233.72 152.89 234.63
  C 156.43 243.22 168.00 243.72 175.51 241.27
  Q 184.30 238.40 184.29 228.59
  Q 184.27 211.80 184.41 194.68
  Q 184.41 194.00 183.73 194.00
  L 177.21 194.01
  A 1.01 1.01 0.0 0 0 176.20 195.04
  L 176.22 196.50
  Z
  M 199.45 212.76
  L 221.44 212.77
  Q 221.95 212.77 221.98 212.26
  C 222.46 204.78 219.84 196.99 212.28 194.34
  C 203.72 191.33 193.84 194.43 190.94 203.73
  C 188.35 212.06 189.57 224.05 198.59 228.02
  C 206.02 231.29 216.35 229.70 221.44 222.44
  Q 221.72 222.04 221.29 221.80
  L 215.29 218.44
  Q 214.83 218.19 214.52 218.62
  C 212.71 221.15 210.55 222.64 207.34 222.72
  C 201.41 222.86 198.89 218.71 198.75 213.48
  Q 198.73 212.76 199.45 212.76
  Z"
/>
<path fill="#ffffff" d="
  M 222.03 183.24
  L 222.00 191.93
  Q 222.00 192.55 221.38 192.52
  L 221.00 192.49
  Q 220.06 192.44 220.07 191.49
  L 220.13 183.22
  A 0.70 0.69 2.2 0 0 219.47 182.52
  L 217.16 182.42
  Q 216.44 182.38 216.48 181.67
  Q 216.50 181.33 216.83 181.09
  A 0.66 0.62 -61.0 0 1 217.20 180.97
  L 225.22 180.89
  A 0.51 0.50 4.4 0 1 225.72 181.47
  L 225.67 181.78
  Q 225.56 182.47 224.87 182.48
  L 222.76 182.49
  Q 222.03 182.50 222.03 183.24
  Z"
/>
<path fill="#ffffff" d="
  M 229.83 184.97
  L 229.90 191.47
  Q 229.91 192.35 229.03 192.40
  L 228.72 192.42
  A 0.67 0.66 87.9 0 1 228.02 191.76
  L 227.96 181.69
  Q 227.95 181.08 228.54 180.94
  C 230.13 180.54 231.23 181.31 231.75 182.84
  Q 232.67 185.54 233.79 188.07
  Q 234.48 189.60 235.00 188.00
  Q 236.00 184.99 237.52 181.62
  C 237.97 180.64 239.12 180.72 239.97 180.94
  A 0.94 0.94 0.0 0 1 240.67 181.86
  L 240.53 191.80
  Q 240.52 192.59 239.74 192.45
  L 239.48 192.41
  A 1.06 1.05 -83.1 0 1 238.61 191.29
  Q 238.86 188.22 238.78 185.26
  Q 238.71 182.70 237.78 185.08
  Q 236.54 188.23 235.27 191.52
  Q 235.07 192.03 234.61 192.28
  A 0.92 0.92 0.0 0 1 233.30 191.77
  Q 231.94 187.89 230.71 184.80
  Q 229.80 182.52 229.83 184.97
  Z"
/>
<path fill="#ffffff" d="
  M 47.8355 214.1497
  A 15.56 15.56 0.0 0 1 32.2483 229.6825
  L 29.3283 229.6774
  A 15.56 15.56 0.0 0 1 13.7955 214.0903
  L 13.8045 208.9303
  A 15.56 15.56 0.0 0 1 29.3917 193.3975
  L 32.3117 193.4026
  A 15.56 15.56 0.0 0 1 47.8445 208.9897
  L 47.8355 214.1497
  Z
  M 38.6812 208.3475
  A 7.29 7.29 0.0 0 0 31.4167 201.0321
  L 30.2767 201.0281
  A 7.29 7.29 0.0 0 0 22.9613 208.2926
  L 22.9388 214.7525
  A 7.29 7.29 0.0 0 0 30.2033 222.0679
  L 31.3433 222.0719
  A 7.29 7.29 0.0 0 0 38.6587 214.8074
  L 38.6812 208.3475
  Z"
/>
<path fill="#ffffff" d="
  M 62.75 197.42
  A 0.35 0.35 0.0 0 0 63.34 197.73
  Q 67.02 194.01 72.28 193.23
  Q 73.80 193.00 73.80 194.54
  L 73.76 200.83
  Q 73.75 202.22 72.36 202.16
  C 69.89 202.05 63.68 202.83 63.68 206.47
  Q 63.65 218.05 63.70 228.38
  Q 63.71 228.86 63.23 228.86
  L 54.80 228.82
  Q 54.28 228.82 54.28 228.30
  L 54.29 195.06
  Q 54.29 194.16 55.19 194.17
  L 62.05 194.19
  Q 63.31 194.19 63.10 195.43
  L 62.75 197.42
  Z"
/>
<path fill="#ffffff" d="
  M 98.35 226.60
  A 0.56 0.56 0.0 0 0 97.52 226.26
  Q 93.71 228.56 89.22 229.22
  C 82.02 230.28 75.92 226.37 76.29 218.65
  C 76.74 209.02 89.71 206.32 97.48 205.81
  Q 98.06 205.77 98.17 205.20
  Q 98.79 201.95 96.42 200.56
  C 92.92 198.52 87.41 200.14 84.91 203.09
  Q 84.31 203.80 83.50 203.35
  L 78.61 200.62
  Q 77.66 200.09 78.42 199.31
  Q 86.58 190.91 99.29 194.20
  C 103.78 195.36 107.10 198.79 107.08 203.49
  Q 107.01 215.92 107.07 228.18
  Q 107.08 228.93 106.32 228.93
  L 99.61 228.93
  A 0.85 0.84 83.0 0 1 98.79 228.28
  L 98.35 226.60
  Z
  M 85.68 216.77
  C 84.30 220.01 86.87 223.75 90.57 223.09
  Q 94.64 222.35 97.54 219.64
  Q 97.97 219.25 97.97 218.67
  L 97.97 211.93
  Q 97.97 211.19 97.24 211.28
  C 93.28 211.72 87.39 212.75 85.68 216.77
  Z"
/>
<path fill="#ffffff" d="
  M 123.50 197.62
  C 131.68 190.79 145.69 191.09 145.57 204.73
  Q 145.46 216.93 145.58 228.41
  Q 145.58 228.80 145.19 228.80
  L 136.56 228.78
  Q 136.28 228.77 136.28 228.50
  Q 136.34 217.78 136.33 205.00
  C 136.31 196.77 127.08 200.66 123.84 203.58
  Q 123.46 203.92 123.46 204.44
  L 123.48 228.29
  Q 123.48 228.82 122.96 228.82
  L 114.77 228.77
  Q 114.27 228.77 114.27 228.27
  L 114.27 196.01
  Q 114.27 195.01 115.25 194.89
  L 120.96 194.14
  Q 121.91 194.01 122.08 194.96
  L 122.52 197.27
  Q 122.71 198.28 123.50 197.62
  Z"
/>
<path fill="#ffffff" d="
  M 176.22 196.50
  L 176.20 195.04
  A 1.01 1.01 0.0 0 1 177.21 194.01
  L 183.73 194.00
  Q 184.41 194.00 184.41 194.68
  Q 184.27 211.80 184.29 228.59
  Q 184.30 238.40 175.51 241.27
  C 168.00 243.72 156.43 243.22 152.89 234.63
  Q 152.51 233.72 153.48 233.57
  L 161.03 232.41
  A 0.99 0.98 -15.9 0 1 162.08 232.99
  C 163.20 235.56 166.11 235.63 168.63 235.63
  C 175.51 235.60 175.46 230.26 175.44 225.13
  Q 175.44 223.51 174.56 224.88
  Q 171.94 229.01 166.12 228.90
  C 153.23 228.65 150.22 215.75 152.45 205.47
  C 153.70 199.74 157.62 194.64 163.58 193.51
  C 167.42 192.79 172.54 193.62 175.17 196.88
  Q 176.24 198.21 176.22 196.50
  Z
  M 172.44 201.57
  Q 170.34 199.65 167.70 199.84
  C 159.91 200.38 160.08 211.56 161.77 216.82
  C 163.98 223.71 172.93 222.60 174.76 215.85
  C 175.90 211.65 176.07 204.88 172.44 201.57
  Z"
/>
<path fill="#ffffff" d="
  M 198.75 213.48
  C 198.89 218.71 201.41 222.86 207.34 222.72
  C 210.55 222.64 212.71 221.15 214.52 218.62
  Q 214.83 218.19 215.29 218.44
  L 221.29 221.80
  Q 221.72 222.04 221.44 222.44
  C 216.35 229.70 206.02 231.29 198.59 228.02
  C 189.57 224.05 188.35 212.06 190.94 203.73
  C 193.84 194.43 203.72 191.33 212.28 194.34
  C 219.84 196.99 222.46 204.78 221.98 212.26
  Q 221.95 212.77 221.44 212.77
  L 199.45 212.76
  Q 198.73 212.76 198.75 213.48
  Z
  M 199.55 207.08
  L 212.55 206.90
  A 0.52 0.52 0.0 0 0 213.06 206.37
  L 213.06 206.19
  A 6.76 6.73 89.2 0 0 206.24 199.53
  L 205.66 199.53
  A 6.76 6.73 89.2 0 0 199.02 206.39
  L 199.03 206.57
  A 0.52 0.52 0.0 0 0 199.55 207.08
  Z"
/>
<path fill="#ff7900" d="
  M 199.55 207.08
  A 0.52 0.52 0.0 0 1 199.03 206.57
  L 199.02 206.39
  A 6.76 6.73 89.2 0 1 205.66 199.53
  L 206.24 199.53
  A 6.76 6.73 89.2 0 1 213.06 206.19
  L 213.06 206.37
  A 0.52 0.52 0.0 0 1 212.55 206.90
  L 199.55 207.08
  Z"
/>
<path fill="#ff7900" d="
  M 172.44 201.57
  C 176.07 204.88 175.90 211.65 174.76 215.85
  C 172.93 222.60 163.98 223.71 161.77 216.82
  C 160.08 211.56 159.91 200.38 167.70 199.84
  Q 170.34 199.65 172.44 201.57
  Z"
/>
<rect fill="#ff7900" x="-7.86" y="-10.52" transform="translate(30.81,211.55) rotate(0.2)" width="15.72" height="21.04" rx="7.29"/>
<path fill="#ff7900" d="
  M 85.68 216.77
  C 87.39 212.75 93.28 211.72 97.24 211.28
  Q 97.97 211.19 97.97 211.93
  L 97.97 218.67
  Q 97.97 219.25 97.54 219.64
  Q 94.64 222.35 90.57 223.09
  C 86.87 223.75 84.30 220.01 85.68 216.77
  Z"
/>
</svg>
