<?xml version="1.0" encoding="UTF-8" standalone="no"?>
<!DOCTYPE svg PUBLIC "-//W3C//DTD SVG 1.1//EN" "http://www.w3.org/Graphics/SVG/1.1/DTD/svg11.dtd">
<svg xmlns="http://www.w3.org/2000/svg" version="1.1" viewBox="0.00 0.00 198.00 235.00">
<g stroke-width="2.00" fill="none" stroke-linecap="butt">
<path stroke="#f1808d" vector-effect="non-scaling-stroke" d="
  M 184.00 11.43
  A 0.45 0.45 0.0 0 0 183.55 10.98
  L 14.45 10.98
  A 0.45 0.45 0.0 0 0 14.00 11.43
  L 14.00 180.57
  A 0.45 0.45 0.0 0 0 14.45 181.02
  L 183.55 181.02
  A 0.45 0.45 0.0 0 0 184.00 180.57
  L 184.00 11.43"
/>
<path stroke="#808080" vector-effect="non-scaling-stroke" d="
  M 26.89 218.64
  C 21.08 216.80 20.64 206.88 25.50 203.86
  C 28.62 201.93 32.73 202.46 34.91 205.57
  Q 35.38 206.24 36.21 206.24
  L 42.20 206.25
  A 0.40 0.39 80.1 0 0 42.57 205.72
  Q 39.85 198.39 32.54 197.00
  C 13.30 193.36 8.75 221.40 26.92 224.89
  C 33.56 226.16 40.20 222.79 42.51 216.20
  A 0.52 0.52 0.0 0 0 42.02 215.51
  L 36.07 215.53
  Q 35.52 215.53 35.21 215.97
  Q 32.13 220.31 26.89 218.64"
/>
<path stroke="#808080" vector-effect="non-scaling-stroke" d="
  M 53.27 220.24
  A 0.35 0.35 0.0 0 1 53.61 220.00
  L 63.94 220.00
  A 0.35 0.35 0.0 0 1 64.28 220.25
  L 65.68 224.75
  A 0.35 0.35 0.0 0 0 66.02 225.00
  L 72.27 225.00
  A 0.35 0.35 0.0 0 0 72.60 224.53
  L 62.77 197.23
  A 0.35 0.35 0.0 0 0 62.44 197.00
  L 55.21 196.99
  A 0.35 0.35 0.0 0 0 54.88 197.22
  L 45.00 224.53
  A 0.35 0.35 0.0 0 0 45.33 225.00
  L 51.51 224.99
  A 0.35 0.35 0.0 0 0 51.85 224.75
  L 53.27 220.24"
/>
<path stroke="#808080" vector-effect="non-scaling-stroke" d="
  M 82.62 216.20
  Q 82.96 212.02 85.12 215.61
  Q 87.62 219.78 90.11 224.70
  Q 90.25 224.98 90.58 224.99
  Q 95.76 225.07 97.52 224.87
  A 0.09 0.09 0.0 0 0 97.59 224.73
  L 91.58 214.43
  Q 91.24 213.84 91.88 213.60
  C 100.89 210.22 98.69 198.22 89.43 197.22
  Q 85.05 196.74 76.55 197.06
  Q 75.97 197.08 75.97 197.66
  L 76.00 224.25
  Q 76.00 225.00 76.75 225.00
  L 82.01 225.00
  A 0.71 0.71 0.0 0 0 82.72 224.23
  Q 82.33 219.71 82.62 216.20"
/>
<path stroke="#808080" vector-effect="non-scaling-stroke" d="
  M 108.20 220.33
  A 0.46 0.46 0.0 0 1 108.64 220.00
  L 118.82 220.00
  A 0.46 0.46 0.0 0 1 119.26 220.32
  L 120.65 224.68
  A 0.46 0.46 0.0 0 0 121.09 225.00
  L 127.13 225.00
  A 0.46 0.46 0.0 0 0 127.57 224.38
  L 117.78 197.31
  A 0.46 0.46 0.0 0 0 117.35 197.01
  L 110.28 196.99
  A 0.46 0.46 0.0 0 0 109.85 197.29
  L 100.04 224.39
  A 0.46 0.46 0.0 0 0 100.48 225.01
  L 106.47 225.00
  A 0.46 0.46 0.0 0 0 106.91 224.67
  L 108.20 220.33"
/>
<path stroke="#808080" vector-effect="non-scaling-stroke" d="
  M 137.26 197.28
  A 0.28 0.28 0.0 0 0 136.98 197.00
  L 131.00 197.00
  A 0.28 0.28 0.0 0 0 130.72 197.28
  L 130.72 224.72
  A 0.28 0.28 0.0 0 0 131.00 225.00
  L 136.98 225.00
  A 0.28 0.28 0.0 0 0 137.26 224.72
  L 137.26 197.28"
/>
<path stroke="#808080" vector-effect="non-scaling-stroke" d="
  M 159.99 210.25
  C 163.04 209.01 164.59 206.00 163.86 202.88
  Q 162.59 197.43 156.43 197.14
  Q 150.25 196.84 142.74 197.05
  Q 142.51 197.06 142.51 197.28
  L 142.52 224.67
  A 0.34 0.33 89.2 0 0 142.86 225.01
  Q 148.20 224.93 153.97 225.05
  Q 157.79 225.13 160.55 223.87
  C 166.03 221.37 166.21 212.88 160.02 210.91
  Q 159.09 210.61 159.99 210.25"
/>
<path stroke="#808080" vector-effect="non-scaling-stroke" d="
  M 175.43 207.99
  A 0.35 0.35 0.0 0 1 175.08 207.64
  L 175.12 202.61
  A 0.35 0.35 0.0 0 1 175.47 202.26
  L 185.08 202.25
  A 0.35 0.35 0.0 0 0 185.43 201.90
  L 185.46 197.35
  A 0.35 0.35 0.0 0 0 185.11 197.00
  L 168.86 197.00
  A 0.35 0.35 0.0 0 0 168.51 197.35
  L 168.51 224.65
  A 0.35 0.35 0.0 0 0 168.86 225.00
  L 185.09 225.00
  A 0.35 0.35 0.0 0 0 185.44 224.65
  L 185.43 220.10
  A 0.35 0.35 0.0 0 0 185.08 219.75
  L 175.44 219.74
  A 0.35 0.35 0.0 0 1 175.09 219.39
  L 175.15 213.61
  A 0.35 0.35 0.0 0 1 175.50 213.26
  L 183.90 213.25
  A 0.35 0.35 0.0 0 0 184.25 212.90
  L 184.27 208.36
  A 0.35 0.35 0.0 0 0 183.92 208.01
  L 175.43 207.99"
/>
<path stroke="#f1808d" vector-effect="non-scaling-stroke" d="
  M 86.86 80.53
  Q 87.65 81.59 87.68 82.95
  Q 87.70 83.74 88.49 83.75
  L 95.21 83.79
  Q 95.84 83.80 95.76 83.17
  C 93.42 65.85 63.43 66.00 61.61 82.73
  Q 60.40 93.86 71.59 97.36
  Q 76.71 98.96 82.02 100.51
  Q 89.13 102.59 89.03 108.66
  C 88.96 112.96 85.60 115.98 81.42 116.52
  Q 70.90 117.86 68.80 108.68
  Q 68.69 108.19 68.18 108.19
  L 61.80 108.22
  Q 61.25 108.22 61.22 108.78
  Q 61.15 110.85 61.93 112.77
  C 65.99 122.69 79.17 124.91 88.01 120.75
  C 96.12 116.93 99.09 106.83 93.58 99.81
  C 88.44 93.27 77.73 94.59 71.39 89.72
  C 66.00 85.56 69.32 77.68 75.35 76.60
  Q 82.93 75.26 86.86 80.53"
/>
<path stroke="#f1808d" vector-effect="non-scaling-stroke" d="
  M 112.48 99.41
  A 0.42 0.42 0.0 0 1 112.90 98.99
  L 129.97 99.00
  A 0.42 0.42 0.0 0 0 130.39 98.57
  L 130.23 93.73
  A 0.42 0.42 0.0 0 0 129.81 93.32
  L 112.92 93.38
  A 0.42 0.42 0.0 0 1 112.50 92.96
  L 112.49 77.19
  A 0.42 0.42 0.0 0 1 112.91 76.77
  L 134.07 76.81
  A 0.42 0.42 0.0 0 0 134.49 76.39
  L 134.51 71.51
  A 0.42 0.42 0.0 0 0 134.09 71.09
  L 105.69 71.02
  A 0.42 0.42 0.0 0 0 105.27 71.44
  L 105.26 121.57
  A 0.42 0.42 0.0 0 0 105.68 121.99
  L 112.09 122.00
  A 0.42 0.42 0.0 0 0 112.51 121.58
  L 112.48 99.41"
/>
<path stroke="#f1808d" vector-effect="non-scaling-stroke" d="
  M 149.41 101.35
  L 155.61 101.32
  A 1.42 1.42 0.0 0 1 156.84 102.03
  L 168.25 121.69
  Q 168.38 121.91 168.63 121.92
  Q 172.72 122.10 176.87 121.90
  A 0.05 0.05 0.0 0 0 176.91 121.82
  Q 170.70 111.38 164.68 101.53
  A 0.63 0.63 0.0 0 1 165.05 100.59
  Q 175.06 97.87 176.24 87.81
  C 177.40 77.92 169.65 71.13 160.21 71.07
  Q 151.79 71.01 142.30 71.06
  Q 141.67 71.07 141.67 71.70
  L 141.70 121.47
  Q 141.70 121.98 142.22 121.99
  L 148.23 122.00
  Q 148.81 122.00 148.81 121.42
  L 148.78 101.98
  Q 148.78 101.35 149.41 101.35"
/>
<path stroke="#f1808d" vector-effect="non-scaling-stroke" d="
  M 148.78 77.38
  L 148.78 95.02
  A 0.62 0.62 0.0 0 0 149.40 95.64
  L 159.81 95.64
  A 9.01 8.43 0.0 0 0 168.82 87.21
  L 168.82 85.19
  A 9.01 8.43 -0.0 0 0 159.81 76.76
  L 149.40 76.76
  A 0.62 0.62 0.0 0 0 148.78 77.38"
/>
<path stroke="#808080" vector-effect="non-scaling-stroke" d="
  M 55.25 214.59
  A 0.30 0.30 0.0 0 0 55.53 214.99
  L 62.07 214.97
  A 0.30 0.30 0.0 0 0 62.36 214.57
  L 59.05 204.99
  A 0.30 0.30 0.0 0 0 58.48 204.99
  L 55.25 214.59"
/>
<path stroke="#808080" vector-effect="non-scaling-stroke" d="
  M 82.57 202.94
  L 82.61 209.32
  A 0.46 0.46 0.0 0 0 83.08 209.78
  L 87.10 209.75
  A 3.82 3.40 -0.4 0 0 90.89 206.32
  L 90.89 205.82
  A 3.82 3.40 -0.4 0 0 87.04 202.45
  L 83.02 202.48
  A 0.46 0.46 0.0 0 0 82.57 202.94"
/>
<path stroke="#808080" vector-effect="non-scaling-stroke" d="
  M 110.30 214.52
  A 0.35 0.35 0.0 0 0 110.63 214.98
  L 116.98 214.97
  A 0.35 0.35 0.0 0 0 117.31 214.51
  L 114.12 204.95
  A 0.35 0.35 0.0 0 0 113.46 204.95
  L 110.30 214.52"
/>
<path stroke="#808080" vector-effect="non-scaling-stroke" d="
  M 149.13 202.66
  L 149.11 207.88
  A 0.40 0.40 0.0 0 0 149.50 208.28
  L 154.24 208.31
  A 3.08 2.88 0.3 0 0 157.34 205.44
  L 157.34 205.18
  A 3.08 2.88 0.3 0 0 154.28 202.29
  L 149.54 202.26
  A 0.40 0.40 0.0 0 0 149.13 202.66"
/>
<path stroke="#808080" vector-effect="non-scaling-stroke" d="
  M 149.13 213.38
  L 149.13 219.24
  A 0.31 0.31 0.0 0 0 149.44 219.55
  L 154.36 219.55
  A 3.61 3.06 -0.0 0 0 157.97 216.49
  L 157.97 216.13
  A 3.61 3.06 0.0 0 0 154.36 213.07
  L 149.44 213.07
  A 0.31 0.31 0.0 0 0 149.13 213.38"
/>
</g>
<path fill="#ffffff" d="
  M 0.00 0.00
  L 198.00 0.00
  L 198.00 235.00
  L 0.00 235.00
  L 0.00 0.00
  Z
  M 184.00 11.43
  A 0.45 0.45 0.0 0 0 183.55 10.98
  L 14.45 10.98
  A 0.45 0.45 0.0 0 0 14.00 11.43
  L 14.00 180.57
  A 0.45 0.45 0.0 0 0 14.45 181.02
  L 183.55 181.02
  A 0.45 0.45 0.0 0 0 184.00 180.57
  L 184.00 11.43
  Z
  M 26.89 218.64
  C 21.08 216.80 20.64 206.88 25.50 203.86
  C 28.62 201.93 32.73 202.46 34.91 205.57
  Q 35.38 206.24 36.21 206.24
  L 42.20 206.25
  A 0.40 0.39 80.1 0 0 42.57 205.72
  Q 39.85 198.39 32.54 197.00
  C 13.30 193.36 8.75 221.40 26.92 224.89
  C 33.56 226.16 40.20 222.79 42.51 216.20
  A 0.52 0.52 0.0 0 0 42.02 215.51
  L 36.07 215.53
  Q 35.52 215.53 35.21 215.97
  Q 32.13 220.31 26.89 218.64
  Z
  M 53.27 220.24
  A 0.35 0.35 0.0 0 1 53.61 220.00
  L 63.94 220.00
  A 0.35 0.35 0.0 0 1 64.28 220.25
  L 65.68 224.75
  A 0.35 0.35 0.0 0 0 66.02 225.00
  L 72.27 225.00
  A 0.35 0.35 0.0 0 0 72.60 224.53
  L 62.77 197.23
  A 0.35 0.35 0.0 0 0 62.44 197.00
  L 55.21 196.99
  A 0.35 0.35 0.0 0 0 54.88 197.22
  L 45.00 224.53
  A 0.35 0.35 0.0 0 0 45.33 225.00
  L 51.51 224.99
  A 0.35 0.35 0.0 0 0 51.85 224.75
  L 53.27 220.24
  Z
  M 82.62 216.20
  Q 82.96 212.02 85.12 215.61
  Q 87.62 219.78 90.11 224.70
  Q 90.25 224.98 90.58 224.99
  Q 95.76 225.07 97.52 224.87
  A 0.09 0.09 0.0 0 0 97.59 224.73
  L 91.58 214.43
  Q 91.24 213.84 91.88 213.60
  C 100.89 210.22 98.69 198.22 89.43 197.22
  Q 85.05 196.74 76.55 197.06
  Q 75.97 197.08 75.97 197.66
  L 76.00 224.25
  Q 76.00 225.00 76.75 225.00
  L 82.01 225.00
  A 0.71 0.71 0.0 0 0 82.72 224.23
  Q 82.33 219.71 82.62 216.20
  Z
  M 108.20 220.33
  A 0.46 0.46 0.0 0 1 108.64 220.00
  L 118.82 220.00
  A 0.46 0.46 0.0 0 1 119.26 220.32
  L 120.65 224.68
  A 0.46 0.46 0.0 0 0 121.09 225.00
  L 127.13 225.00
  A 0.46 0.46 0.0 0 0 127.57 224.38
  L 117.78 197.31
  A 0.46 0.46 0.0 0 0 117.35 197.01
  L 110.28 196.99
  A 0.46 0.46 0.0 0 0 109.85 197.29
  L 100.04 224.39
  A 0.46 0.46 0.0 0 0 100.48 225.01
  L 106.47 225.00
  A 0.46 0.46 0.0 0 0 106.91 224.67
  L 108.20 220.33
  Z
  M 137.26 197.28
  A 0.28 0.28 0.0 0 0 136.98 197.00
  L 131.00 197.00
  A 0.28 0.28 0.0 0 0 130.72 197.28
  L 130.72 224.72
  A 0.28 0.28 0.0 0 0 131.00 225.00
  L 136.98 225.00
  A 0.28 0.28 0.0 0 0 137.26 224.72
  L 137.26 197.28
  Z
  M 159.99 210.25
  C 163.04 209.01 164.59 206.00 163.86 202.88
  Q 162.59 197.43 156.43 197.14
  Q 150.25 196.84 142.74 197.05
  Q 142.51 197.06 142.51 197.28
  L 142.52 224.67
  A 0.34 0.33 89.2 0 0 142.86 225.01
  Q 148.20 224.93 153.97 225.05
  Q 157.79 225.13 160.55 223.87
  C 166.03 221.37 166.21 212.88 160.02 210.91
  Q 159.09 210.61 159.99 210.25
  Z
  M 175.43 207.99
  A 0.35 0.35 0.0 0 1 175.08 207.64
  L 175.12 202.61
  A 0.35 0.35 0.0 0 1 175.47 202.26
  L 185.08 202.25
  A 0.35 0.35 0.0 0 0 185.43 201.90
  L 185.46 197.35
  A 0.35 0.35 0.0 0 0 185.11 197.00
  L 168.86 197.00
  A 0.35 0.35 0.0 0 0 168.51 197.35
  L 168.51 224.65
  A 0.35 0.35 0.0 0 0 168.86 225.00
  L 185.09 225.00
  A 0.35 0.35 0.0 0 0 185.44 224.65
  L 185.43 220.10
  A 0.35 0.35 0.0 0 0 185.08 219.75
  L 175.44 219.74
  A 0.35 0.35 0.0 0 1 175.09 219.39
  L 175.15 213.61
  A 0.35 0.35 0.0 0 1 175.50 213.26
  L 183.90 213.25
  A 0.35 0.35 0.0 0 0 184.25 212.90
  L 184.27 208.36
  A 0.35 0.35 0.0 0 0 183.92 208.01
  L 175.43 207.99
  Z"
/>
<path fill="#e3001b" d="
  M 184.00 180.57
  A 0.45 0.45 0.0 0 1 183.55 181.02
  L 14.45 181.02
  A 0.45 0.45 0.0 0 1 14.00 180.57
  L 14.00 11.43
  A 0.45 0.45 0.0 0 1 14.45 10.98
  L 183.55 10.98
  A 0.45 0.45 0.0 0 1 184.00 11.43
  L 184.00 180.57
  Z
  M 86.86 80.53
  Q 87.65 81.59 87.68 82.95
  Q 87.70 83.74 88.49 83.75
  L 95.21 83.79
  Q 95.84 83.80 95.76 83.17
  C 93.42 65.85 63.43 66.00 61.61 82.73
  Q 60.40 93.86 71.59 97.36
  Q 76.71 98.96 82.02 100.51
  Q 89.13 102.59 89.03 108.66
  C 88.96 112.96 85.60 115.98 81.42 116.52
  Q 70.90 117.86 68.80 108.68
  Q 68.69 108.19 68.18 108.19
  L 61.80 108.22
  Q 61.25 108.22 61.22 108.78
  Q 61.15 110.85 61.93 112.77
  C 65.99 122.69 79.17 124.91 88.01 120.75
  C 96.12 116.93 99.09 106.83 93.58 99.81
  C 88.44 93.27 77.73 94.59 71.39 89.72
  C 66.00 85.56 69.32 77.68 75.35 76.60
  Q 82.93 75.26 86.86 80.53
  Z
  M 112.48 99.41
  A 0.42 0.42 0.0 0 1 112.90 98.99
  L 129.97 99.00
  A 0.42 0.42 0.0 0 0 130.39 98.57
  L 130.23 93.73
  A 0.42 0.42 0.0 0 0 129.81 93.32
  L 112.92 93.38
  A 0.42 0.42 0.0 0 1 112.50 92.96
  L 112.49 77.19
  A 0.42 0.42 0.0 0 1 112.91 76.77
  L 134.07 76.81
  A 0.42 0.42 0.0 0 0 134.49 76.39
  L 134.51 71.51
  A 0.42 0.42 0.0 0 0 134.09 71.09
  L 105.69 71.02
  A 0.42 0.42 0.0 0 0 105.27 71.44
  L 105.26 121.57
  A 0.42 0.42 0.0 0 0 105.68 121.99
  L 112.09 122.00
  A 0.42 0.42 0.0 0 0 112.51 121.58
  L 112.48 99.41
  Z
  M 149.41 101.35
  L 155.61 101.32
  A 1.42 1.42 0.0 0 1 156.84 102.03
  L 168.25 121.69
  Q 168.38 121.91 168.63 121.92
  Q 172.72 122.10 176.87 121.90
  A 0.05 0.05 0.0 0 0 176.91 121.82
  Q 170.70 111.38 164.68 101.53
  A 0.63 0.63 0.0 0 1 165.05 100.59
  Q 175.06 97.87 176.24 87.81
  C 177.40 77.92 169.65 71.13 160.21 71.07
  Q 151.79 71.01 142.30 71.06
  Q 141.67 71.07 141.67 71.70
  L 141.70 121.47
  Q 141.70 121.98 142.22 121.99
  L 148.23 122.00
  Q 148.81 122.00 148.81 121.42
  L 148.78 101.98
  Q 148.78 101.35 149.41 101.35
  Z"
/>
<path fill="#ffffff" d="
  M 86.86 80.53
  Q 82.93 75.26 75.35 76.60
  C 69.32 77.68 66.00 85.56 71.39 89.72
  C 77.73 94.59 88.44 93.27 93.58 99.81
  C 99.09 106.83 96.12 116.93 88.01 120.75
  C 79.17 124.91 65.99 122.69 61.93 112.77
  Q 61.15 110.85 61.22 108.78
  Q 61.25 108.22 61.80 108.22
  L 68.18 108.19
  Q 68.69 108.19 68.80 108.68
  Q 70.90 117.86 81.42 116.52
  C 85.60 115.98 88.96 112.96 89.03 108.66
  Q 89.13 102.59 82.02 100.51
  Q 76.71 98.96 71.59 97.36
  Q 60.40 93.86 61.61 82.73
  C 63.43 66.00 93.42 65.85 95.76 83.17
  Q 95.84 83.80 95.21 83.79
  L 88.49 83.75
  Q 87.70 83.74 87.68 82.95
  Q 87.65 81.59 86.86 80.53
  Z"
/>
<path fill="#ffffff" d="
  M 112.48 99.41
  L 112.51 121.58
  A 0.42 0.42 0.0 0 1 112.09 122.00
  L 105.68 121.99
  A 0.42 0.42 0.0 0 1 105.26 121.57
  L 105.27 71.44
  A 0.42 0.42 0.0 0 1 105.69 71.02
  L 134.09 71.09
  A 0.42 0.42 0.0 0 1 134.51 71.51
  L 134.49 76.39
  A 0.42 0.42 0.0 0 1 134.07 76.81
  L 112.91 76.77
  A 0.42 0.42 0.0 0 0 112.49 77.19
  L 112.50 92.96
  A 0.42 0.42 0.0 0 0 112.92 93.38
  L 129.81 93.32
  A 0.42 0.42 0.0 0 1 130.23 93.73
  L 130.39 98.57
  A 0.42 0.42 0.0 0 1 129.97 99.00
  L 112.90 98.99
  A 0.42 0.42 0.0 0 0 112.48 99.41
  Z"
/>
<path fill="#ffffff" d="
  M 148.78 101.98
  L 148.81 121.42
  Q 148.81 122.00 148.23 122.00
  L 142.22 121.99
  Q 141.70 121.98 141.70 121.47
  L 141.67 71.70
  Q 141.67 71.07 142.30 71.06
  Q 151.79 71.01 160.21 71.07
  C 169.65 71.13 177.40 77.92 176.24 87.81
  Q 175.06 97.87 165.05 100.59
  A 0.63 0.63 0.0 0 0 164.68 101.53
  Q 170.70 111.38 176.91 121.82
  A 0.05 0.05 0.0 0 1 176.87 121.90
  Q 172.72 122.10 168.63 121.92
  Q 168.38 121.91 168.25 121.69
  L 156.84 102.03
  A 1.42 1.42 0.0 0 0 155.61 101.32
  L 149.41 101.35
  Q 148.78 101.35 148.78 101.98
  Z
  M 148.78 77.38
  L 148.78 95.02
  A 0.62 0.62 0.0 0 0 149.40 95.64
  L 159.81 95.64
  A 9.01 8.43 0.0 0 0 168.82 87.21
  L 168.82 85.19
  A 9.01 8.43 -0.0 0 0 159.81 76.76
  L 149.40 76.76
  A 0.62 0.62 0.0 0 0 148.78 77.38
  Z"
/>
<path fill="#e3001b" d="
  M 148.78 77.38
  A 0.62 0.62 0.0 0 1 149.40 76.76
  L 159.81 76.76
  A 9.01 8.43 0.0 0 1 168.82 85.19
  L 168.82 87.21
  A 9.01 8.43 0.0 0 1 159.81 95.64
  L 149.40 95.64
  A 0.62 0.62 0.0 0 1 148.78 95.02
  L 148.78 77.38
  Z"
/>
<path fill="#000000" d="
  M 25.50 203.86
  C 20.64 206.88 21.08 216.80 26.89 218.64
  Q 32.13 220.31 35.21 215.97
  Q 35.52 215.53 36.07 215.53
  L 42.02 215.51
  A 0.52 0.52 0.0 0 1 42.51 216.20
  C 40.20 222.79 33.56 226.16 26.92 224.89
  C 8.75 221.40 13.30 193.36 32.54 197.00
  Q 39.85 198.39 42.57 205.72
  A 0.40 0.39 80.1 0 1 42.20 206.25
  L 36.21 206.24
  Q 35.38 206.24 34.91 205.57
  C 32.73 202.46 28.62 201.93 25.50 203.86
  Z"
/>
<path fill="#000000" d="
  M 53.27 220.24
  L 51.85 224.75
  A 0.35 0.35 0.0 0 1 51.51 224.99
  L 45.33 225.00
  A 0.35 0.35 0.0 0 1 45.00 224.53
  L 54.88 197.22
  A 0.35 0.35 0.0 0 1 55.21 196.99
  L 62.44 197.00
  A 0.35 0.35 0.0 0 1 62.77 197.23
  L 72.60 224.53
  A 0.35 0.35 0.0 0 1 72.27 225.00
  L 66.02 225.00
  A 0.35 0.35 0.0 0 1 65.68 224.75
  L 64.28 220.25
  A 0.35 0.35 0.0 0 0 63.94 220.00
  L 53.61 220.00
  A 0.35 0.35 0.0 0 0 53.27 220.24
  Z
  M 55.25 214.59
  A 0.30 0.30 0.0 0 0 55.53 214.99
  L 62.07 214.97
  A 0.30 0.30 0.0 0 0 62.36 214.57
  L 59.05 204.99
  A 0.30 0.30 0.0 0 0 58.48 204.99
  L 55.25 214.59
  Z"
/>
<path fill="#000000" d="
  M 82.62 216.20
  Q 82.33 219.71 82.72 224.23
  A 0.71 0.71 0.0 0 1 82.01 225.00
  L 76.75 225.00
  Q 76.00 225.00 76.00 224.25
  L 75.97 197.66
  Q 75.97 197.08 76.55 197.06
  Q 85.05 196.74 89.43 197.22
  C 98.69 198.22 100.89 210.22 91.88 213.60
  Q 91.24 213.84 91.58 214.43
  L 97.59 224.73
  A 0.09 0.09 0.0 0 1 97.52 224.87
  Q 95.76 225.07 90.58 224.99
  Q 90.25 224.98 90.11 224.70
  Q 87.62 219.78 85.12 215.61
  Q 82.96 212.02 82.62 216.20
  Z
  M 82.57 202.94
  L 82.61 209.32
  A 0.46 0.46 0.0 0 0 83.08 209.78
  L 87.10 209.75
  A 3.82 3.40 -0.4 0 0 90.89 206.32
  L 90.89 205.82
  A 3.82 3.40 -0.4 0 0 87.04 202.45
  L 83.02 202.48
  A 0.46 0.46 0.0 0 0 82.57 202.94
  Z"
/>
<path fill="#000000" d="
  M 108.20 220.33
  L 106.91 224.67
  A 0.46 0.46 0.0 0 1 106.47 225.00
  L 100.48 225.01
  A 0.46 0.46 0.0 0 1 100.04 224.39
  L 109.85 197.29
  A 0.46 0.46 0.0 0 1 110.28 196.99
  L 117.35 197.01
  A 0.46 0.46 0.0 0 1 117.78 197.31
  L 127.57 224.38
  A 0.46 0.46 0.0 0 1 127.13 225.00
  L 121.09 225.00
  A 0.46 0.46 0.0 0 1 120.65 224.68
  L 119.26 220.32
  A 0.46 0.46 0.0 0 0 118.82 220.00
  L 108.64 220.00
  A 0.46 0.46 0.0 0 0 108.20 220.33
  Z
  M 110.30 214.52
  A 0.35 0.35 0.0 0 0 110.63 214.98
  L 116.98 214.97
  A 0.35 0.35 0.0 0 0 117.31 214.51
  L 114.12 204.95
  A 0.35 0.35 0.0 0 0 113.46 204.95
  L 110.30 214.52
  Z"
/>
<rect fill="#000000" x="130.72" y="197.00" width="6.54" height="28.00" rx="0.28"/>
<path fill="#000000" d="
  M 160.02 210.91
  C 166.21 212.88 166.03 221.37 160.55 223.87
  Q 157.79 225.13 153.97 225.05
  Q 148.20 224.93 142.86 225.01
  A 0.34 0.33 89.2 0 1 142.52 224.67
  L 142.51 197.28
  Q 142.51 197.06 142.74 197.05
  Q 150.25 196.84 156.43 197.14
  Q 162.59 197.43 163.86 202.88
  C 164.59 206.00 163.04 209.01 159.99 210.25
  Q 159.09 210.61 160.02 210.91
  Z
  M 149.13 202.66
  L 149.11 207.88
  A 0.40 0.40 0.0 0 0 149.50 208.28
  L 154.24 208.31
  A 3.08 2.88 0.3 0 0 157.34 205.44
  L 157.34 205.18
  A 3.08 2.88 0.3 0 0 154.28 202.29
  L 149.54 202.26
  A 0.40 0.40 0.0 0 0 149.13 202.66
  Z
  M 149.13 213.38
  L 149.13 219.24
  A 0.31 0.31 0.0 0 0 149.44 219.55
  L 154.36 219.55
  A 3.61 3.06 -0.0 0 0 157.97 216.49
  L 157.97 216.13
  A 3.61 3.06 0.0 0 0 154.36 213.07
  L 149.44 213.07
  A 0.31 0.31 0.0 0 0 149.13 213.38
  Z"
/>
<path fill="#000000" d="
  M 175.43 207.99
  L 183.92 208.01
  A 0.35 0.35 0.0 0 1 184.27 208.36
  L 184.25 212.90
  A 0.35 0.35 0.0 0 1 183.90 213.25
  L 175.50 213.26
  A 0.35 0.35 0.0 0 0 175.15 213.61
  L 175.09 219.39
  A 0.35 0.35 0.0 0 0 175.44 219.74
  L 185.08 219.75
  A 0.35 0.35 0.0 0 1 185.43 220.10
  L 185.44 224.65
  A 0.35 0.35 0.0 0 1 185.09 225.00
  L 168.86 225.00
  A 0.35 0.35 0.0 0 1 168.51 224.65
  L 168.51 197.35
  A 0.35 0.35 0.0 0 1 168.86 197.00
  L 185.11 197.00
  A 0.35 0.35 0.0 0 1 185.46 197.35
  L 185.43 201.90
  A 0.35 0.35 0.0 0 1 185.08 202.25
  L 175.47 202.26
  A 0.35 0.35 0.0 0 0 175.12 202.61
  L 175.08 207.64
  A 0.35 0.35 0.0 0 0 175.43 207.99
  Z"
/>
<path fill="#ffffff" d="
  M 149.13 202.66
  A 0.40 0.40 0.0 0 1 149.54 202.26
  L 154.28 202.29
  A 3.08 2.88 0.3 0 1 157.34 205.18
  L 157.34 205.44
  A 3.08 2.88 0.3 0 1 154.24 208.31
  L 149.50 208.28
  A 0.40 0.40 0.0 0 1 149.11 207.88
  L 149.13 202.66
  Z"
/>
<path fill="#ffffff" d="
  M 82.57 202.94
  A 0.46 0.46 0.0 0 1 83.02 202.48
  L 87.04 202.45
  A 3.82 3.40 -0.4 0 1 90.89 205.82
  L 90.89 206.32
  A 3.82 3.40 -0.4 0 1 87.10 209.75
  L 83.08 209.78
  A 0.46 0.46 0.0 0 1 82.61 209.32
  L 82.57 202.94
  Z"
/>
<path fill="#ffffff" d="
  M 55.25 214.59
  L 58.48 204.99
  A 0.30 0.30 0.0 0 1 59.05 204.99
  L 62.36 214.57
  A 0.30 0.30 0.0 0 1 62.07 214.97
  L 55.53 214.99
  A 0.30 0.30 0.0 0 1 55.25 214.59
  Z"
/>
<path fill="#ffffff" d="
  M 110.30 214.52
  L 113.46 204.95
  A 0.35 0.35 0.0 0 1 114.12 204.95
  L 117.31 214.51
  A 0.35 0.35 0.0 0 1 116.98 214.97
  L 110.63 214.98
  A 0.35 0.35 0.0 0 1 110.30 214.52
  Z"
/>
<path fill="#ffffff" d="
  M 149.13 213.38
  A 0.31 0.31 0.0 0 1 149.44 213.07
  L 154.36 213.07
  A 3.61 3.06 -0.0 0 1 157.97 216.13
  L 157.97 216.49
  A 3.61 3.06 -0.0 0 1 154.36 219.55
  L 149.44 219.55
  A 0.31 0.31 0.0 0 1 149.13 219.24
  L 149.13 213.38
  Z"
/>
</svg>
